<?xml version="1.0" encoding="UTF-8"?>
<svg id="d" data-name="Icons" xmlns="http://www.w3.org/2000/svg" width="1.739in" height="1.768in" viewBox="0 0 125.205 127.311">
  <rect x="9.593" y="18.574" width="105.569" height="91.214" fill="none" stroke="#2e3c36" stroke-miterlimit="10" stroke-width="2"/>
  <line x1="16.448" y1="56.963" x2="54.03" y2="56.963" fill="none" stroke="#2e3c36" stroke-linecap="round" stroke-linejoin="round" stroke-width="2"/>
  <line x1="16.448" y1="64.484" x2="54.03" y2="64.484" fill="none" stroke="#2e3c36" stroke-linecap="round" stroke-linejoin="round" stroke-width="2"/>
  <line x1="16.448" y1="72.004" x2="54.03" y2="72.004" fill="none" stroke="#2e3c36" stroke-linecap="round" stroke-linejoin="round" stroke-width="2"/>
  <line x1="16.448" y1="79.525" x2="54.03" y2="79.525" fill="none" stroke="#2e3c36" stroke-linecap="round" stroke-linejoin="round" stroke-width="2"/>
  <line x1="16.448" y1="87.045" x2="32.9" y2="87.045" fill="none" stroke="#2e3c36" stroke-linecap="round" stroke-linejoin="round" stroke-width="2"/>
  <line x1="69.676" y1="56.963" x2="107.258" y2="56.963" fill="none" stroke="#2e3c36" stroke-linecap="round" stroke-linejoin="round" stroke-width="2"/>
  <line x1="69.676" y1="65.351" x2="107.258" y2="65.351" fill="none" stroke="#2e3c36" stroke-linecap="round" stroke-linejoin="round" stroke-width="2"/>
  <line x1="69.676" y1="72.932" x2="107.258" y2="72.932" fill="none" stroke="#2e3c36" stroke-linecap="round" stroke-linejoin="round" stroke-width="2"/>
  <line x1="69.676" y1="80.19" x2="107.258" y2="80.19" fill="none" stroke="#2e3c36" stroke-linecap="round" stroke-linejoin="round" stroke-width="2"/>
  <rect x="34.191" y="27.93" width="2.581" height="21.291" fill="#2e3c36" stroke="#2e3c36" stroke-miterlimit="10"/>
  <rect x="27.9" y="32.688" width="6.129" height="2.742" fill="#2e3c36" stroke="#2e3c36" stroke-miterlimit="10"/>
  <rect x="37.094" y="32.688" width="6.129" height="2.742" fill="#2e3c36" stroke="#2e3c36" stroke-miterlimit="10"/>
  <polyline points="10.722 18.574 4.189 18.574 4.189 113.256 62.256 113.256 62.256 100.999 62.256 18.574" fill="none" stroke="#2e3c36" stroke-miterlimit="10" stroke-width="2"/>
  <g>
    <polyline points="5.963 18.574 5.963 112.24 62.256 112.24" fill="none" stroke="#2e3c36" stroke-miterlimit="10"/>
    <line x1="5.963" y1="112.24" x2="62.256" y2="112.24" fill="none" stroke="#2e3c36" stroke-miterlimit="10"/>
  </g>
  <g>
    <polyline points="7.576 18.574 7.576 111.02 62.095 111.02" fill="none" stroke="#2e3c36" stroke-miterlimit="10"/>
    <line x1="7.576" y1="111.02" x2="62.095" y2="111.02" fill="none" stroke="#2e3c36" stroke-miterlimit="10"/>
  </g>
  <polyline points="111.694 18.574 120.324 18.574 120.324 113.256 62.256 113.256 62.256 100.999 62.256 18.574" fill="none" stroke="#2e3c36" stroke-miterlimit="10" stroke-width="2"/>
  <g>
    <polyline points="118.549 18.574 118.549 112.24 62.256 112.24" fill="none" stroke="#2e3c36" stroke-miterlimit="10"/>
    <line x1="118.549" y1="112.24" x2="62.256" y2="112.24" fill="none" stroke="#2e3c36" stroke-miterlimit="10"/>
  </g>
  <g>
    <polyline points="116.936 18.574 116.936 111.02 62.418 111.02" fill="none" stroke="#2e3c36" stroke-miterlimit="10"/>
    <line x1="116.936" y1="111.02" x2="62.418" y2="111.02" fill="none" stroke="#2e3c36" stroke-miterlimit="10"/>
  </g>
</svg>