<?xml version="1.0" encoding="UTF-8"?>
<svg id="d" data-name="Icons" xmlns="http://www.w3.org/2000/svg" width="1.739in" height="1.768in" viewBox="0 0 125.205 127.311">
  <rect x="4.494" y="28.271" width="116.513" height="81.739" rx="8.353" ry="8.353" fill="none" stroke="#2e3c36" stroke-miterlimit="10" stroke-width="2"/>
  <g>
    <rect x="71.743" y="44.612" width="11.519" height="11.519" rx="5.759" ry="5.759" fill="none" stroke="#2e3c36" stroke-miterlimit="10" stroke-width="2"/>
    <rect x="56.528" y="44.612" width="11.519" height="11.519" rx="5.759" ry="5.759" fill="none" stroke="#2e3c36" stroke-miterlimit="10" stroke-width="2"/>
    <rect x="102.174" y="44.612" width="11.519" height="11.519" rx="5.759" ry="5.759" fill="none" stroke="#2e3c36" stroke-miterlimit="10" stroke-width="2"/>
    <rect x="86.959" y="44.612" width="11.519" height="11.519" rx="5.759" ry="5.759" fill="none" stroke="#2e3c36" stroke-miterlimit="10" stroke-width="2"/>
    <rect x="41.312" y="44.612" width="11.519" height="11.519" rx="5.759" ry="5.759" fill="none" stroke="#2e3c36" stroke-miterlimit="10" stroke-width="2"/>
    <rect x="26.097" y="44.612" width="11.519" height="11.519" rx="5.759" ry="5.759" fill="none" stroke="#2e3c36" stroke-miterlimit="10" stroke-width="2"/>
    <rect x="10.881" y="44.612" width="11.519" height="11.519" rx="5.759" ry="5.759" fill="none" stroke="#2e3c36" stroke-miterlimit="10" stroke-width="2"/>
  </g>
  <g>
    <rect x="71.743" y="60.174" width="11.519" height="11.519" rx="5.759" ry="5.759" fill="none" stroke="#2e3c36" stroke-miterlimit="10" stroke-width="2"/>
    <rect x="102.174" y="60.174" width="11.519" height="11.519" rx="5.759" ry="5.759" fill="none" stroke="#2e3c36" stroke-miterlimit="10" stroke-width="2"/>
    <rect x="86.959" y="60.174" width="11.519" height="11.519" rx="5.759" ry="5.759" fill="none" stroke="#2e3c36" stroke-miterlimit="10" stroke-width="2"/>
    <rect x="41.312" y="60.174" width="11.519" height="11.519" rx="5.759" ry="5.759" fill="none" stroke="#2e3c36" stroke-miterlimit="10" stroke-width="2"/>
    <rect x="26.097" y="60.174" width="11.519" height="11.519" rx="5.759" ry="5.759" fill="none" stroke="#2e3c36" stroke-miterlimit="10" stroke-width="2"/>
    <rect x="10.881" y="60.174" width="11.519" height="11.519" rx="5.759" ry="5.759" fill="none" stroke="#2e3c36" stroke-miterlimit="10" stroke-width="2"/>
  </g>
  <g>
    <rect x="71.743" y="75.736" width="11.519" height="11.519" rx="5.759" ry="5.759" fill="none" stroke="#2e3c36" stroke-miterlimit="10" stroke-width="2"/>
    <rect x="56.528" y="75.736" width="11.519" height="11.519" rx="5.759" ry="5.759" fill="none" stroke="#2e3c36" stroke-miterlimit="10" stroke-width="2"/>
    <rect x="102.174" y="75.736" width="11.519" height="11.519" rx="5.759" ry="5.759" fill="none" stroke="#2e3c36" stroke-miterlimit="10" stroke-width="2"/>
    <rect x="86.959" y="75.736" width="11.519" height="11.519" rx="5.759" ry="5.759" fill="none" stroke="#2e3c36" stroke-miterlimit="10" stroke-width="2"/>
    <rect x="41.312" y="75.736" width="11.519" height="11.519" rx="5.759" ry="5.759" fill="none" stroke="#2e3c36" stroke-miterlimit="10" stroke-width="2"/>
    <rect x="26.097" y="75.736" width="11.519" height="11.519" rx="5.759" ry="5.759" fill="none" stroke="#2e3c36" stroke-miterlimit="10" stroke-width="2"/>
    <rect x="10.881" y="75.736" width="11.519" height="11.519" rx="5.759" ry="5.759" fill="none" stroke="#2e3c36" stroke-miterlimit="10" stroke-width="2"/>
  </g>
  <g>
    <rect x="56.528" y="91.298" width="11.519" height="11.519" rx="5.759" ry="5.759" fill="none" stroke="#2e3c36" stroke-miterlimit="10" stroke-width="2"/>
    <rect x="41.312" y="91.298" width="11.519" height="11.519" rx="5.759" ry="5.759" fill="none" stroke="#2e3c36" stroke-miterlimit="10" stroke-width="2"/>
    <rect x="26.097" y="91.298" width="11.519" height="11.519" rx="5.759" ry="5.759" fill="none" stroke="#2e3c36" stroke-miterlimit="10" stroke-width="2"/>
    <rect x="10.881" y="91.298" width="11.519" height="11.519" rx="5.759" ry="5.759" fill="none" stroke="#2e3c36" stroke-miterlimit="10" stroke-width="2"/>
  </g>
  <path d="m62.35,62.648c1.383-2.737,4.489-3.371,5.77-1.153h0c.746,1.293.571,2.919-.433,4.024l-5.029,5.943c-.161.19-.454.19-.616,0l-5.029-5.943c-1.004-1.104-1.179-2.731-.433-4.024h0c1.28-2.218,4.415-1.821,5.77,1.153" fill="#2e3c36" stroke="#2e3c36" stroke-miterlimit="10"/>
  <g>
    <g>
      <path d="m20.568,27.712c-.772-6.878,2.745-12.641,6.73-12.641s7.215,4.487,7.215,10.023-3.23,10.023-7.215,10.023" fill="none" stroke="#2e3c36" stroke-miterlimit="10" stroke-width="2"/>
      <circle cx="27.517" cy="35.152" r="3.229" fill="none" stroke="#2e3c36" stroke-miterlimit="10" stroke-width="2"/>
    </g>
    <g>
      <path d="m31.084,27.712c-.772-6.878,2.745-12.641,6.73-12.641s7.215,4.487,7.215,10.023-3.23,10.023-7.215,10.023" fill="none" stroke="#2e3c36" stroke-miterlimit="10" stroke-width="2"/>
      <circle cx="38.033" cy="35.152" r="3.229" fill="none" stroke="#2e3c36" stroke-miterlimit="10" stroke-width="2"/>
    </g>
    <g>
      <path d="m80.579,27.712c-.772-6.878,2.745-12.641,6.73-12.641s7.215,4.487,7.215,10.023-3.23,10.023-7.215,10.023" fill="none" stroke="#2e3c36" stroke-miterlimit="10" stroke-width="2"/>
      <circle cx="87.528" cy="35.152" r="3.229" fill="none" stroke="#2e3c36" stroke-miterlimit="10" stroke-width="2"/>
    </g>
    <g>
      <path d="m91.095,27.712c-.772-6.878,2.745-12.641,6.73-12.641s7.215,4.487,7.215,10.023-3.23,10.023-7.215,10.023" fill="none" stroke="#2e3c36" stroke-miterlimit="10" stroke-width="2"/>
      <circle cx="98.044" cy="35.152" r="3.229" fill="none" stroke="#2e3c36" stroke-miterlimit="10" stroke-width="2"/>
    </g>
  </g>
</svg>