<?xml version="1.0" encoding="UTF-8"?>
<svg id="d" data-name="Icons" xmlns="http://www.w3.org/2000/svg" width="1.739in" height="1.768in" viewBox="0 0 125.205 127.311">
  <polyline points="29.53 79.96 21.369 81.981 7.507 25.983 89.288 5.738 103.15 61.736 94.359 63.912" fill="none" stroke="#2e3c36" stroke-linecap="round" stroke-linejoin="round" stroke-width="2"/>
  <polyline points="7.507 25.983 56.145 48.004 89.288 5.738" fill="none" stroke="#2e3c36" stroke-linecap="round" stroke-linejoin="round" stroke-width="2"/>
  <line x1="39.784" y1="56.424" x2="48.241" y2="44.687" fill="none" stroke="#2e3c36" stroke-linecap="round" stroke-linejoin="round" stroke-width="2"/>
  <line x1="21.369" y1="81.981" x2="30.659" y2="69.088" fill="none" stroke="#2e3c36" stroke-linecap="round" stroke-linejoin="round" stroke-width="2"/>
  <line x1="103.016" y1="61.769" x2="61.849" y2="41.319" fill="none" stroke="#2e3c36" stroke-linecap="round" stroke-linejoin="round" stroke-width="2"/>
  <path d="m52.455,34.845c.377-1.979,2.224-2.942,3.435-1.774h0c.705.681.89,1.74.456,2.619l-2.099,4.664c-.067.149-.253.203-.389.112l-4.253-2.842c-.834-.516-1.239-1.511-1.002-2.463h0c.407-1.633,2.458-1.95,3.853-.317" fill="#2e3c36" stroke="#2e3c36" stroke-miterlimit="10" stroke-width="2"/>
  <polyline points="29.473 79.731 25.36 113.741 110.595 124.166 118.821 67.77 32.382 55.682 29.473 79.731" fill="none" stroke="#2e3c36" stroke-linecap="round" stroke-linejoin="round" stroke-width="2"/>
  <line x1="40.038" y1="72.058" x2="59.82" y2="74.825" fill="none" stroke="#2e3c36" stroke-linecap="round" stroke-linejoin="round" stroke-width="2"/>
  <line x1="83.016" y1="108.672" x2="102.798" y2="111.439" fill="none" stroke="#2e3c36" stroke-linecap="round" stroke-linejoin="round" stroke-width="2"/>
  <line x1="38.7" y1="80.773" x2="105.796" y2="89.627" fill="none" stroke="#2e3c36" stroke-linecap="round" stroke-linejoin="round" stroke-width="2"/>
  <line x1="38.101" y1="85.754" x2="105.196" y2="94.607" fill="none" stroke="#2e3c36" stroke-linecap="round" stroke-linejoin="round" stroke-width="2"/>
  <line x1="37.363" y1="91.01" x2="104.458" y2="99.864" fill="none" stroke="#2e3c36" stroke-linecap="round" stroke-linejoin="round" stroke-width="2"/>
</svg>