<?xml version="1.0" encoding="UTF-8"?>
<svg id="d" data-name="Icons" xmlns="http://www.w3.org/2000/svg" width="1.739in" height="1.768in" viewBox="0 0 125.205 127.311">
  <path d="m55.272,105.681c-17.51-4.759-30.387-20.769-30.387-39.786,0-18.839,12.636-34.726,29.894-39.649" fill="none" stroke="#2e3c36" stroke-miterlimit="10" stroke-width="2"/>
  <path d="m74.77,25.423c18.786,3.844,32.567,20.55,32.567,40.472,0,18.808-12.595,34.674-29.81,39.625" fill="none" stroke="#2e3c36" stroke-miterlimit="10" stroke-width="2"/>
  <g>
    <path d="m55.368,30.604c-.212.193-.467.346-.758.44-1.092.355-2.265-.243-2.62-1.335s.243-2.265,1.335-2.62c.531-.173,1.082-.12,1.548.106" fill="none" stroke="#2e3c36" stroke-miterlimit="10"/>
    <circle cx="48.356" cy="31.419" r="2.079" fill="none" stroke="#2e3c36" stroke-miterlimit="10"/>
    <circle cx="43.181" cy="34.621" r="2.079" fill="none" stroke="#2e3c36" stroke-miterlimit="10"/>
    <circle cx="38.572" cy="38.593" r="2.079" fill="none" stroke="#2e3c36" stroke-miterlimit="10"/>
    <circle cx="34.64" cy="43.238" r="2.079" fill="none" stroke="#2e3c36" stroke-miterlimit="10"/>
    <circle cx="31.483" cy="48.44" r="2.079" fill="none" stroke="#2e3c36" stroke-miterlimit="10"/>
    <circle cx="29.179" cy="54.072" r="2.079" fill="none" stroke="#2e3c36" stroke-miterlimit="10"/>
    <circle cx="27.784" cy="59.995" r="2.079" fill="none" stroke="#2e3c36" stroke-miterlimit="10"/>
    <circle cx="27.333" cy="66.063" r="2.079" fill="none" stroke="#2e3c36" stroke-miterlimit="10"/>
    <circle cx="27.837" cy="72.127" r="2.079" fill="none" stroke="#2e3c36" stroke-miterlimit="10"/>
    <circle cx="29.283" cy="78.038" r="2.079" fill="none" stroke="#2e3c36" stroke-miterlimit="10"/>
    <circle cx="31.636" cy="83.65" r="2.079" fill="none" stroke="#2e3c36" stroke-miterlimit="10"/>
    <circle cx="34.838" cy="88.824" r="2.079" fill="none" stroke="#2e3c36" stroke-miterlimit="10"/>
    <circle cx="38.81" cy="93.434" r="2.079" fill="none" stroke="#2e3c36" stroke-miterlimit="10"/>
    <circle cx="43.454" cy="97.366" r="2.079" fill="none" stroke="#2e3c36" stroke-miterlimit="10"/>
    <circle cx="48.656" cy="100.523" r="2.079" fill="none" stroke="#2e3c36" stroke-miterlimit="10"/>
    <path d="m54.936,104.803c-.405.133-.854.143-1.29.001-1.092-.355-1.69-1.528-1.335-2.62s1.528-1.69,2.62-1.335c.267.087.505.223.706.395" fill="none" stroke="#2e3c36" stroke-miterlimit="10"/>
    <path d="m76.893,101.151c.204-.177.446-.317.719-.406,1.092-.355,2.265.243,2.62,1.335s-.243,2.265-1.335,2.62c-.365.119-.74.131-1.09.053" fill="none" stroke="#2e3c36" stroke-miterlimit="10"/>
    <circle cx="83.866" cy="100.37" r="2.079" fill="none" stroke="#2e3c36" stroke-miterlimit="10"/>
    <circle cx="89.041" cy="97.168" r="2.079" fill="none" stroke="#2e3c36" stroke-miterlimit="10"/>
    <circle cx="93.651" cy="93.196" r="2.079" fill="none" stroke="#2e3c36" stroke-miterlimit="10"/>
    <circle cx="97.583" cy="88.552" r="2.079" fill="none" stroke="#2e3c36" stroke-miterlimit="10"/>
    <circle cx="100.74" cy="83.349" r="2.079" fill="none" stroke="#2e3c36" stroke-miterlimit="10"/>
    <circle cx="103.044" cy="77.717" r="2.079" fill="none" stroke="#2e3c36" stroke-miterlimit="10"/>
    <circle cx="104.439" cy="71.794" r="2.079" fill="none" stroke="#2e3c36" stroke-miterlimit="10"/>
    <circle cx="104.89" cy="65.726" r="2.079" fill="none" stroke="#2e3c36" stroke-miterlimit="10"/>
    <circle cx="104.386" cy="59.662" r="2.079" fill="none" stroke="#2e3c36" stroke-miterlimit="10"/>
    <circle cx="102.94" cy="53.751" r="2.079" fill="none" stroke="#2e3c36" stroke-miterlimit="10"/>
    <circle cx="100.587" cy="48.139" r="2.079" fill="none" stroke="#2e3c36" stroke-miterlimit="10"/>
    <circle cx="97.385" cy="42.965" r="2.079" fill="none" stroke="#2e3c36" stroke-miterlimit="10"/>
    <circle cx="93.413" cy="38.355" r="2.079" fill="none" stroke="#2e3c36" stroke-miterlimit="10"/>
    <circle cx="88.768" cy="34.423" r="2.079" fill="none" stroke="#2e3c36" stroke-miterlimit="10"/>
    <circle cx="83.566" cy="31.266" r="2.079" fill="none" stroke="#2e3c36" stroke-miterlimit="10"/>
    <circle cx="77.934" cy="28.962" r="2.079" fill="none" stroke="#2e3c36" stroke-miterlimit="10"/>
  </g>
  <path d="m57.686,85.838c-7.769-3.286-13.22-10.978-13.22-19.944,0-8.706,5.14-16.211,12.551-19.647" fill="none" stroke="#2e3c36" stroke-miterlimit="10" stroke-width="2"/>
  <path d="m74.24,45.828c7.926,3.214,13.516,10.987,13.516,20.067,0,8.811-5.264,16.392-12.819,19.769" fill="none" stroke="#2e3c36" stroke-miterlimit="10" stroke-width="2"/>
  <g>
    <path d="m73.419,63.754c4.224.755,7.074,2.183,7.074,3.821,0,2.425-6.248,4.391-13.956,4.391s-13.956-1.966-13.956-4.391c0-1.39,2.053-2.629,5.257-3.434" fill="none" stroke="#2e3c36" stroke-miterlimit="10" stroke-width="2"/>
    <path d="m73.605,70.311c4.113.755,6.888,2.183,6.888,3.821,0,2.425-6.084,4.391-13.588,4.391s-13.588-1.966-13.588-4.391c0-1.39,1.999-2.629,5.119-3.434" fill="none" stroke="#2e3c36" stroke-miterlimit="10" stroke-width="2"/>
    <path d="m77.467,105.312c.222,1.773-.544,3.525-1.995,4.567l-13.336,9.575c-3.41,2.448-8.115-.27-7.697-4.447l4.524-45.241c.031-.31.032-.622.004-.933l-4.102-44.533c-.153-1.663.555-3.289,1.878-4.309l11.347-8.754c3.313-2.556,8.095-.026,7.847,4.151l-3.101,52.208c-.018.298-.008.598.029.894l4.603,36.821" fill="none" stroke="#2e3c36" stroke-linecap="round" stroke-linejoin="round" stroke-width="2"/>
  </g>
  <path d="m58.437,82.021c-6.503-2.751-10.445-8.631-10.445-16.136,0-7.288,3.639-13.219,9.843-16.096" fill="none" stroke="#2e3c36" stroke-miterlimit="10"/>
  <path d="m73.599,49.287c6.635,2.69,10.632,8.997,10.632,16.598,0,7.376-3.504,13.61-9.829,16.438" fill="none" stroke="#2e3c36" stroke-miterlimit="10"/>
</svg>