<?xml version="1.0" encoding="UTF-8"?>
<svg id="d" data-name="Icons" xmlns="http://www.w3.org/2000/svg" width="1.739in" height="1.768in" viewBox="0 0 125.205 127.311">
  <path d="m44.463,86.04c-1.514.221-3.063.335-4.639.335-17.592,0-31.853-14.261-31.853-31.853s14.261-31.853,31.853-31.853c11.089,0,20.854,5.666,26.559,14.262" fill="none" stroke="#2e3c36" stroke-miterlimit="10" stroke-width="2"/>
  <path d="m69.986,44.255c1.096,3.222,1.691,6.675,1.691,10.268,0,13.162-7.983,24.459-19.371,29.315" fill="none" stroke="#2e3c36" stroke-miterlimit="10" stroke-width="2"/>
  <path d="m76.721,42.158c1.269,3.888,1.956,8.045,1.956,12.364,0,16.139-9.59,30.008-23.312,36.082" fill="none" stroke="#2e3c36" stroke-miterlimit="10" stroke-width="2"/>
  <path d="m52.26,83.895c-1.09-3.214-1.682-6.658-1.682-10.24,0-17.592,14.261-31.853,31.853-31.853s31.853,14.261,31.853,31.853-14.261,31.853-31.853,31.853c-14.01,0-25.907-9.045-30.172-21.613" fill="none" stroke="#2e3c36" stroke-miterlimit="10" stroke-width="2"/>
  <path d="m44.251,86.613c-1.38-4.067-2.128-8.425-2.128-12.958,0-22.262,18.047-40.309,40.309-40.309s40.309,18.047,40.309,40.309-18.047,40.309-40.309,40.309c-17.729,0-32.784-11.445-38.181-27.35" fill="none" stroke="#2e3c36" stroke-miterlimit="10" stroke-width="2"/>
  <path d="m46.703,92.748c-1.831.267-4.42.29-6.325.29C19.106,93.037,1.863,75.794,1.863,54.523S19.106,16.008,40.377,16.008c13.408,0,25.819,7.659,32.716,18.052" fill="none" stroke="#2e3c36" stroke-miterlimit="10" stroke-width="2"/>
</svg>