<?xml version="1.0" encoding="utf-8"?>
<!-- Generator: Adobe Illustrator 27.8.1, SVG Export Plug-In . SVG Version: 6.00 Build 0)  -->
<svg version="1.1" id="Capa_1" xmlns="http://www.w3.org/2000/svg" xmlns:xlink="http://www.w3.org/1999/xlink" x="0px" y="0px"
	 viewBox="50 50 180 180" style="enable-background:new 0 0 283.46 283.46;" xml:space="preserve">
<style type="text/css">
	.st0{fill:#13ADB9;}
	.st1{fill:#FFFFFF;}
</style>
<g>
	<g>
		<path class="st1" d="M152.9,167.09c9.8-5.65,9.37-10.87,8.99-12.36c-0.5-1.95-2.15-3.37-3.93-3.37c-1.35,0-2.59,0.83-3.51,2.34
			c-0.33,0.54-0.92,0.87-1.55,0.87l0,0c-0.63,0-1.22-0.33-1.55-0.88c-0.93-1.53-2.14-2.34-3.51-2.34c-1.78,0-3.43,1.42-3.92,3.37
			C143.53,156.23,143.09,161.44,152.9,167.09z"/>
		<path class="st1" d="M187.83,120.26h-2.17v6.56c0,3.36-2.74,6.1-6.1,6.1c-3.37,0-6.1-2.74-6.1-6.1v-6.56H159v6.56
			c0,3.36-2.74,6.1-6.1,6.1c-3.36,0-6.1-2.74-6.1-6.1v-6.56h-14.45v6.56c0,3.36-2.74,6.1-6.1,6.1c-3.37,0-6.1-2.74-6.1-6.1v-6.56
			h-2.17c-2.02,0-3.66,1.64-3.66,3.66v12.38h77.18v-12.38C191.49,121.9,189.85,120.26,187.83,120.26z"/>
		<path class="st1" d="M187.83,116.63h-2.17v-1.88c0-3.37-2.74-6.1-6.1-6.1c-3.37,0-6.1,2.74-6.1,6.1v1.88H159v-1.88
			c0-3.37-2.74-6.1-6.1-6.1c-3.36,0-6.1,2.74-6.1,6.1v1.88h-14.45v-1.88c0-3.37-2.74-6.1-6.1-6.1c-3.37,0-6.1,2.74-6.1,6.1v1.88
			h-2.17c-4.02,0-7.29,3.27-7.29,7.29v60.88c0,4.02,3.27,7.29,7.29,7.29h69.86c4.02,0,7.29-3.27,7.29-7.29v-60.88
			C195.12,119.9,191.85,116.63,187.83,116.63z M191.49,136.29h-77.18v-12.38c0-2.02,1.64-3.66,3.66-3.66h2.17v6.56
			c0,3.36,2.74,6.1,6.1,6.1c3.37,0,6.1-2.74,6.1-6.1v-6.56h14.45v6.56c0,3.36,2.74,6.1,6.1,6.1c3.37,0,6.1-2.74,6.1-6.1v-6.56h14.45
			v6.56c0,3.36,2.74,6.1,6.1,6.1c3.36,0,6.1-2.74,6.1-6.1v-6.56h2.17c2.02,0,3.66,1.64,3.66,3.66V136.29z M177.08,114.75
			c0-1.36,1.11-2.47,2.47-2.47c1.36,0,2.47,1.11,2.47,2.47v12.07c0,1.36-1.11,2.47-2.47,2.47c-1.36,0-2.47-1.11-2.47-2.47V114.75z
			 M150.43,114.75c0-1.36,1.11-2.47,2.47-2.47c1.36,0,2.47,1.11,2.47,2.47v12.07c0,1.36-1.11,2.47-2.47,2.47
			c-1.36,0-2.47-1.11-2.47-2.47V114.75z M123.77,114.75c0-1.36,1.11-2.47,2.47-2.47c1.36,0,2.47,1.11,2.47,2.47v12.07
			c0,1.36-1.11,2.47-2.47,2.47c-1.36,0-2.47-1.11-2.47-2.47V114.75z M191.49,184.8c0,2.02-1.64,3.66-3.66,3.66h-69.86
			c-2.02,0-3.66-1.64-3.66-3.66v-44.87h77.18V184.8z"/>
		<path class="st1" d="M121.46,152.52h12.07c1,0,1.82-0.81,1.82-1.82c0-1-0.81-1.82-1.82-1.82h-12.07c-1,0-1.82,0.81-1.82,1.82
			C119.64,151.71,120.46,152.52,121.46,152.52z"/>
		<path class="st1" d="M121.46,179.12h12.07c1,0,1.82-0.81,1.82-1.82c0-1-0.81-1.82-1.82-1.82h-12.07c-1,0-1.82,0.81-1.82,1.82
			C119.64,178.31,120.46,179.12,121.46,179.12z"/>
		<path class="st1" d="M121.46,165.82h12.07c1,0,1.82-0.81,1.82-1.82c0-1-0.81-1.82-1.82-1.82h-12.07c-1,0-1.82,0.81-1.82,1.82
			C119.64,165.01,120.46,165.82,121.46,165.82z"/>
		<path class="st1" d="M172.26,152.52h12.07c1,0,1.82-0.81,1.82-1.82c0-1-0.81-1.82-1.82-1.82h-12.07c-1,0-1.82,0.81-1.82,1.82
			C170.45,151.71,171.26,152.52,172.26,152.52z"/>
		<path class="st1" d="M172.26,179.12h12.07c1,0,1.82-0.81,1.82-1.82c0-1-0.81-1.82-1.82-1.82h-12.07c-1,0-1.82,0.81-1.82,1.82
			C170.45,178.31,171.26,179.12,172.26,179.12z"/>
		<path class="st1" d="M172.26,165.82h12.07c1,0,1.82-0.81,1.82-1.82c0-1-0.81-1.82-1.82-1.82h-12.07c-1,0-1.82,0.81-1.82,1.82
			C170.45,165.01,171.26,165.82,172.26,165.82z"/>
		<path class="st1" d="M158.93,175.49h-12.07c-1,0-1.82,0.81-1.82,1.82c0,1,0.81,1.82,1.82,1.82h12.07c1,0,1.82-0.81,1.82-1.82
			C160.75,176.3,159.94,175.49,158.93,175.49z"/>
		<path class="st1" d="M152.03,170.77c0.27,0.15,0.57,0.22,0.87,0.22c0.3,0,0.6-0.07,0.87-0.22c4.67-2.55,8.03-5.42,9.99-8.55
			c2.22-3.54,2.12-6.51,1.64-8.38c-0.92-3.59-3.98-6.1-7.44-6.1c-1.87,0-3.63,0.76-5.06,2.13c-1.43-1.38-3.19-2.13-5.06-2.13
			c-3.47,0-6.53,2.51-7.44,6.1c-0.48,1.87-0.58,4.84,1.64,8.38C144,165.34,147.36,168.22,152.03,170.77z M143.91,154.73
			c0.5-1.95,2.15-3.37,3.92-3.37c1.37,0,2.58,0.81,3.51,2.34c0.33,0.54,0.92,0.87,1.55,0.88l0,0c0.64,0,1.22-0.33,1.55-0.87
			c0.92-1.51,2.16-2.34,3.51-2.34c1.78,0,3.43,1.42,3.93,3.37c0.38,1.5,0.82,6.71-8.99,12.36
			C143.09,161.44,143.53,156.23,143.91,154.73z"/>
	</g>
</g>
</svg>
