<?xml version="1.0" encoding="utf-8"?>
<!-- Generator: Adobe Illustrator 27.8.1, SVG Export Plug-In . SVG Version: 6.00 Build 0)  -->
<svg version="1.1" id="Capa_1" xmlns="http://www.w3.org/2000/svg" xmlns:xlink="http://www.w3.org/1999/xlink" x="0px" y="0px"
	 viewBox="0 0 1080 1080" style="enable-background:new 0 0 1080 1080;" xml:space="preserve">
<style type="text/css">
	.st0{fill:#435359;}
</style>
<path class="st0" d="M769.96,660.18c4.53-8.2-5.97-15.1-11.56-19.06c-9.05-6.42-18.34-12.26-28.19-17.4
	c-11.24-5.86-22.9-10.55-35.12-13.94c-11.68-3.24-23.64-5.3-35.57-7.36c-3.22-0.56-6.45-1.09-9.69-1.59
	c3.73-0.79,7.47-1.53,11.18-2.41c10.64-2.55,21.25-5.25,31.73-8.41c10.24-3.09,20.56-6.19,30.2-10.9c4.76-2.33,9.36-4.98,13.94-7.64
	c4.2-2.44,8.46-4.8,12.64-7.27c4.3-2.54,8.56-5.28,12.33-8.57c1.84-1.61,3.56-3.38,5.05-5.32c0.82-1.06,1.53-2.21,2.27-3.33
	c0.78-1.16,1.75-2.32,2.15-3.67c0.59-2,0.56-4.29-0.55-6.11c-1.12-1.83-3.25-3.02-5.12-3.98c-4.62-2.36-9.84-2.66-14.9-1.94
	c-5.06,0.72-10.01,2.45-14.75,4.32c-4.75,1.87-9.4,4.04-13.94,6.39c-9.18,4.76-17.75,10.58-26.23,16.48
	c-8.5,5.92-16.95,11.93-25.89,17.17c-9.43,5.52-19.26,10.54-28.32,16.66c-2.23,1.5-4.39,3.1-6.42,4.85
	c-0.06,0.05-0.1,0.11-0.15,0.16c-0.07,0-0.09,0.01-0.04,0.04c0,0-0.01,0.01-0.01,0.01c-1.48-0.71-3.27-0.43-4.22,1
	c-13.6-1.38-27.27-1.82-40.93-0.38c-6.24,0.66-12.47,1.6-18.68,2.78c2.68-1.76,5.31-3.6,7.9-5.55c5.91-4.43,12-8.61,17.96-12.98
	c2.94-2.16,5.84-4.37,8.65-6.7c1.34-1.11,2.65-2.23,3.97-3.36c0.62-0.53,1.25-1.07,1.87-1.6c0.46-0.39,1.17-0.85,1.72-1.33
	c0.43,0.09,0.87,0.15,1.29,0.18c0.31,0.02,0.61-0.01,0.92-0.02c0.13,0.02,0.26,0.04,0.38,0.06c1.57,0.2,3.21,0.04,4.74-0.39
	c3.15-0.89,6.22-2.2,8.97-3.96c3.06-1.96,5.55-4.48,8.17-6.98c2.77-2.64,4.95-5.66,6.19-9.31c0.54-1.59,0.84-3.07,0.47-4.74
	c-0.29-1.33-0.88-2.61-1.77-3.64c-1.54-1.8-3.83-2.61-6.15-2.74c-4.25-0.23-8.72,1.55-12.4,3.53c-2.4,1.29-4.61,3-6.65,4.8
	c-1.28,1.12-2.49,2.31-3.63,3.56c-1.1,1.22-2.41,2.38-3.33,3.74c-0.5,0.73-0.88,1.64-1.11,2.6c-1.29,1.28-2.45,2.76-2.93,4.53
	c-0.54,1.98-0.04,3.77,1.04,5.23c-0.84,0.73-1.68,1.46-2.53,2.19c-3.6,3.1-7.26,6.09-11.07,8.93c-3.72,2.78-7.53,5.45-11.3,8.16
	c-3.86,2.77-7.58,5.72-11.42,8.52c-4.14,3.03-8.74,5.58-13.27,7.96c-1.15,0.61-1.61,1.6-1.6,2.59c-10.38,2.6-20.61,5.81-30.56,9.43
	c-17.4,6.34-34.18,14.28-50.08,23.75c5.78-5.64,12.07-10.71,18.55-15.54c6.77-5.04,13.73-9.78,20.68-14.57
	c7.21-4.97,14.1-10.33,20.91-15.82c3.33-2.69,6.57-5.5,9.78-8.33c1.54-1.35,3.04-2.74,4.61-4.06c1.4-1.19,3.04-2.01,4.6-2.96
	c3.45-2.12,6.63-4.66,10.04-6.83c3.49-2.22,7-4.39,10.07-7.18c3.07-2.79,5.78-5.95,8.69-8.91c2.93-2.99,6.03-5.81,9.19-8.56
	c6.24-5.42,12.75-10.52,18.93-16.01c7.22-6.41,14.17-13.13,21.29-19.67c3.26-3,6.57-5.89,10.04-8.64c0.71-0.31,1.4-0.69,2.09-1.07
	c1.27-0.69,2.62-1.32,3.96-1.86c2.4-0.97,5.08-1.12,7.55-1.93c6.08-1.98,12.29-3.57,18.46-5.26c12.67-3.49,25.34-7.02,38.02-10.48
	c12.24-3.34,24.51-6.55,36.69-10.09c12.25-3.56,24.27-7.63,36.2-12.14c5.46-2.06,10.65-4.29,15.48-7.62
	c2.46-1.69,5.09-3.09,7.35-5.09c0.98-0.87,1.88-1.82,2.73-2.82c1.36-1.61,2.4-2.87,2.6-5.04c0.15-1.73,0.44-3.3-0.28-4.94
	c-0.59-1.33-1.46-2.63-2.5-3.66c-2.13-2.12-4.92-3.74-7.75-4.72c-2.8-0.97-5.82-1.3-8.76-1.55c-2.88-0.24-5.75-0.32-8.64-0.13
	c-11.96,0.78-23.84,4.26-35.19,7.92c-11.97,3.87-23.74,8.44-35.33,13.33c-11.45,4.84-22.71,10.22-33.07,17.14
	c-5.09,3.4-9.91,7.12-14.59,11.03c3.74-5.07,7.27-10.29,10.55-15.67c5.56-9.11,10.63-18.52,15.65-27.95
	c5.5-4.5,11.19-8.76,17.09-12.73c3.53-2.37,7.1-4.68,10.84-6.7c1.38-0.75,2.76-1.49,4.14-2.25c1.12,1.89,3.34,2.81,5.46,3.18
	c4.7,0.82,9.26,0.2,13.38-2.32c2.24-1.37,4.32-3.05,6.1-5c1.78-1.95,3.58-4.16,4.2-6.79c0.69-2.89,0.18-6.16-1.74-8.48
	c-2.11-2.56-5.34-3.05-8.47-3.01c-5.28,0.07-9.61,2.84-13.08,6.63c-1.93,2.11-4.01,4.86-4.85,7.77c-0.62,0.42-1.22,0.86-1.81,1.25
	c-1.83,1.23-3.85,2.21-5.78,3.26c-3.89,2.13-7.6,4.54-11.26,7.06c-2.48,1.7-4.91,3.46-7.33,5.25c1.95-3.6,3.92-7.19,5.95-10.75
	c4.8-8.43,9.67-16.83,14.85-25.03c2.46-3.9,5.05-7.7,7.72-11.43c0.4-0.25,0.8-0.5,1.2-0.75c2.89-1.78,5.85-3.43,8.86-4.99
	c6.19-3.21,12.54-6.1,18.81-9.16c12.77-6.23,25.48-12.59,37.99-19.32c6.19-3.33,12.39-6.7,18.45-10.27c2.96-1.74,5.84-3.6,8.61-5.63
	c1.21-0.89,2.49-1.73,3.63-2.71c1.24-1.07,2.2-2.39,3.33-3.56c1.29-1.35,2.27-3,2.83-4.78c0.67-2.11,0.08-3.86-1.53-5.36
	c-1.3-1.21-2.87-1.67-4.6-1.76c-1.54-0.08-3.1-0.43-4.69-0.39c-6.61,0.18-13.19,1.27-19.6,2.87c-25.48,6.35-46.81,23.04-63.46,42.83
	c-4.72,5.61-9.23,11.36-13.53,17.27c0.19-3.38,0.11-6.76-0.44-10.2c-1.09-6.75-3.26-13.5-5.68-19.87
	c-2.44-6.42-5.9-12.25-9.71-17.94c-3.96-5.91-8.02-11.88-13.79-16.18c-3.89-2.89-9.48-5.94-14.47-4.55
	c-6.73,1.88-9.16,8.78-8.24,15.15c0.42,2.95,1.5,5.79,2.55,8.56c1.13,2.97,2.49,5.85,4.07,8.61c3.23,5.67,7.26,10.88,11.6,15.74
	c4.89,5.48,11,10.06,15.06,16.25c3.48,5.3,7.88,10.59,8.95,17.01c0.08,0.49,0.31,0.92,0.62,1.28c-0.74,1.15-1.47,2.31-2.18,3.47
	c-7.62,12.4-14.81,25.08-21.74,37.87c-1.42,2.61-2.82,5.24-4.21,7.86c-0.47,0.4-0.95,0.79-1.42,1.19c-1.03,0.89-1.17,2.01-0.79,2.97
	c-4.78,8.98-9.61,17.94-15.06,26.54c-7.1,11.2-15.21,22.04-24.6,31.46c3.17-8.95,5.17-18.25,6.81-27.6
	c1.7-9.67,3.52-19.32,4.04-29.13c4.24-1.33,7.46-5.26,9.05-9.55c2.08-5.59,1.2-13.45-3.82-17.23c-5.58-4.2-13.23,0.13-17.04,4.69
	c-3.77,4.52-5.42,11.37-3.44,17.03c0.02,0.13,0.03,0.26,0.06,0.39c0.63,3.09,2.84,5.56,6.01,6.09c0.92,0.15,1.83,0.15,2.72,0.05
	c-0.21,3.68-0.56,7.35-1.19,10.98c-0.03,0.15-0.05,0.31-0.08,0.46c-0.23,0.31-0.39,0.7-0.43,1.17c-0.21,2.25-0.53,4.48-0.89,6.7
	c-0.08,0.49-0.17,0.99-0.25,1.48c-0.37,2.13-0.77,4.26-1.19,6.39c-0.55,2.79-1.03,5.6-1.55,8.41c-0.31,1.47-0.63,2.93-0.98,4.39
	c-1.29,5.41-2.87,10.75-4.85,15.94c-0.22,0.58-0.2,1.19-0.02,1.76c-0.73,2.05-1.56,4.02-2.76,5.87c-0.74,1.14-1.41,2.26-1.92,3.44
	c-1.37,1.14-2.72,2.3-4.04,3.5c-6.35,5.79-12.6,11.68-18.9,17.51c-3.52,3.26-7.15,6.38-10.8,9.47
	c14.14-25.48,23.73-53.31,26.12-82.52c1.11-13.54,0.51-27.79-5.53-40.22c-2.82-5.8-6.79-11.49-12.67-14.49
	c-5.28-2.69-11.16-3.34-17.01-3.55c-5.6-0.19-11.55-0.01-16.77-1.23c-3.05-0.71-5.41-1.63-7.95-3.34c-2.93-1.97-5.28-4.74-7.29-7.61
	c-1.97-2.8-3.72-5.75-5.68-8.56c-1.81-2.58-3.95-5.8-7.5-5.73c-2.96,0.06-4.89,2.65-6.16,5.03c-1.72,3.24-2.63,6.69-2.61,10.37
	c0.03,7.05,2.61,14.12,5.5,20.46c3.08,6.76,7.38,13.02,12.64,18.26c5.5,5.47,12.05,9.48,18.44,13.79
	c6.11,4.11,11.58,8.77,15.14,15.33c6.92,12.77,7.78,28.35,6.77,42.57c-0.56,7.87-2.29,15.58-3.54,23.36
	c-0.64,3.99-1.33,7.99-2.38,11.89c-1.11,4.13-2.77,8.03-4.59,11.89c-1.84,3.89-3.67,7.75-4.97,11.86c-0.01,0.03-0.01,0.05-0.02,0.08
	c-2.08,2.03-4.13,4.09-6.15,6.22c-2.89,3.05-5.89,5.9-9.42,8.2c-3.4,2.22-6.8,4.41-10.12,6.75c-3.21,2.26-6.8,4.08-9.74,6.7
	c-3.2,2.85-6.35,5.74-9.58,8.56c-0.33,0.29-0.67,0.57-1,0.86c1.23-2.17,2.42-4.38,3.49-6.64c2.6-5.49,4.68-11.2,6.9-16.85
	c4.15-10.55,8.61-21.08,10.8-32.26c0.32-1.61,0.62-3.39,0.83-5.25c0.59-0.47,1.17-0.95,1.72-1.47c3.41-3.19,6.68-7.46,6.09-12.39
	c-0.49-4.15-3.92-7.59-7.63-9.17c-3.88-1.65-8.23-0.99-11.92,1.01c-3.33,0.09-6.43,1.99-8.66,4.83c-3.25,4.13-3.57,9.57-2.63,14.55
	c0.95,5.01,6.21,8.32,11.13,7.92c1.6-0.13,3.25-0.64,4.82-1.27c-0.57,2.75-1.33,5.45-2.08,8.04c-2.74,9.41-6.59,18.37-10.11,27.5
	c-1.75,4.54-3.49,9.09-5.69,13.43c-2.38,4.72-5.17,9.22-7.99,13.69c-0.79,1.24-0.59,2.46,0.08,3.37c-2.76,2.21-5.56,4.37-8.41,6.43
	c-6.92,4.98-13.96,9.78-20.84,14.82c-7.61,5.59-15.11,11.37-21.9,17.95c-2.86,2.77-5.59,5.66-8.24,8.63
	c-0.05-0.18-0.13-0.35-0.26-0.5c-0.25-0.29-0.42-0.63-0.55-1.01c2.68-4.52,5.24-9.11,7.49-13.88c4.46-9.45,8.02-19.28,11.31-29.19
	c3.22-9.68,6.29-19.36,8.44-29.35c2.15-9.98,3.77-20.1,4.96-30.24c1.15-9.73,1.82-19.51,1.97-29.3c0.12-7.95-0.16-16.13-2.57-23.77
	c-2.54-8.06-7.62-15.78-14.94-20.28c-0.97-0.6-2-1.09-3.05-1.52c-1.23-0.51-2.68-0.55-3.99-0.73c-1.14-0.16-2.28-0.31-3.42-0.47
	c-1.38-0.19-2.83,0.1-4.21,0.25c-5.05,0.53-9.95,1.38-14.93,2.39c-9.14,1.86-18.11,2.48-27.18-0.11c-4.92-1.4-9.69-3.26-14.42-5.21
	c-2.1-0.86-4.17-1.83-6.31-2.59c-2.08-0.74-4.17-1.08-6.34-1.42c-2.17-0.34-3.81,0.26-5.23,1.64c-1.92,1.16-2.83,2.82-3.16,5.07
	c-0.26,1.81-0.54,3.55-0.39,5.38c0.31,3.61,1.47,7.09,3.2,10.27c3.71,6.83,9.69,12.41,15.75,17.15
	c12.19,9.53,26.84,15.85,37.96,26.76c10.38,10.19,15.65,24.33,17.82,38.48c2.15,14.01,1.16,28.5-1.4,42.39
	c-0.84,4.57-1.88,9.09-2.85,13.63c-1.07,4.99-1.79,10.03-2.76,15.03c-0.92,4.76-2.56,9.34-4.38,13.83
	c-1.85,4.59-3.59,9.33-6.1,13.61c-0.22,0.38-0.34,0.75-0.4,1.12c-11.38,8.98-22.06,18.83-31.95,29.51
	c-9.84,10.63-19.13,21.94-27.66,33.77c0.34-0.82,0.67-1.64,1.01-2.46c5.22-12.52,10.82-24.88,16.12-37.37
	c2.62-6.18,4.79-12.48,6.72-18.9c1.9-6.31,3.79-12.68,5.1-19.14c2.51-12.41,2.7-25.08,2.83-37.69c0-0.3,0-0.6,0.01-0.89
	c3.41-2.08,6.19-5.04,7.69-9.05c2.67-7.14,0.29-16.32-5.39-21.38c-2.94-2.62-6.61-4.5-10.64-3.79c-4.26,0.76-8.09,3.51-10.53,7.03
	c-2.37,3.41-3.15,7.65-2.76,11.74c0.14,1.44,0.4,2.9,0.82,4.28c0.06,2.75,0.71,5.47,2.19,7.67c0.95,1.42,2.1,2.84,3.52,3.81
	c-0.04,0.35-0.04,0.71,0.04,1.04c0.43,1.83,2.12,2.6,3.84,2.39c1.67-0.21,3.34-0.56,4.97-1.03c-0.02,7.27-0.2,14.55-0.81,21.77
	c-0.86,10.16-3.3,19.9-6.12,29.67c-1.44,5-2.92,10-4.75,14.87c-1.86,4.95-3.99,9.8-6.1,14.65c-3.84,8.82-7.55,17.69-11.17,26.61
	c0.34-3.73,0.52-7.46,0.5-11.23c-0.07-12.76-2.13-25.33-4.82-37.77c-2.64-12.18-6.04-24.23-10.83-35.75
	c-4.79-11.52-11.04-22.57-20.16-31.21c-8.39-7.95-19.33-15.98-31.45-15.75c-5.61,0.11-11.87,1.49-16.36,4.98
	c-2.22,1.73-4.47,4.39-5.2,7.14c-0.79,2.96-0.17,6.21,0.73,9.08c0.94,3.01,2.43,5.79,3.92,8.56c1.48,2.76,3.13,5.43,4.85,8.04
	c3.67,5.56,7.61,10.95,11.43,16.41c7.7,10.99,15.39,22.01,22.45,33.43c6.68,10.81,12.79,21.99,17.77,33.69
	c2.52,5.91,4.77,11.94,6.54,18.11c0.87,3.02,1.64,6.07,2.14,9.18c0.52,3.26,0.81,6.56,1.26,9.83c0.17,1.24,0.37,2.46,0.39,3.72
	c0.03,1.72-0.16,3,1.1,4.42c0.14,0.15,0.28,0.28,0.43,0.39c-11.99,21.23-20.81,44.07-29.18,66.92c-2.18,5.94-4.33,11.88-6.51,17.82
	c-1.42,3.86,4.72,5.66,6.13,1.81c8.38-22.81,16.32-45.87,26.93-67.77c0.62-0.07,1.22-0.4,1.64-1.1c1.32-2.19,2.96-4.2,4.54-6.2
	c1.49-1.87,2.77-3.96,4.36-5.74c3.05-3.43,6.94-5.91,10.72-8.45c8.1-5.46,15.98-11.16,24.5-15.97c8.26-4.66,16.81-8.41,26.02-10.73
	c9.04-2.27,18.25-3.24,27.54-3.79c9.7-0.58,19.43-0.68,29.13-0.07c9.96,0.63,19.78,2.4,29.73,3.14c10.08,0.75,20.11,1.77,30.14,3.11
	c4.58,0.61,9.1,1.63,13.65,2.4c4.85,0.82,9.68,1.31,14.61,1.27c2.31-0.02,4.61-0.13,6.91-0.33c2.32-0.21,4.79-0.34,7.08-0.81
	c0.96-0.2,1.88-0.62,2.78-0.95c1.27-0.47,2.39-0.92,3.19-2.11c0.62-0.92,0.95-2.05,0.96-3.16c0.02-1.74-1.06-2.76-2.28-3.8
	c-3.73-3.16-8.32-4.91-12.98-6.21c-2.25-0.63-4.52-1.16-6.78-1.77c-2.19-0.59-4.4-0.79-6.55-1.61c-1.85-0.71-3.53-1.77-5.1-2.97
	c-1.97-2.76-3.95-5.42-4.33-8.92c-0.31-2.86,0.33-5.86,1.01-8.74c0.79-3.35,1.71-6.73,1.93-10.19c0.15-2.32,0.57-4.85,0.1-7.14
	c-0.38-1.86-1.19-3.64-2.4-5.11c-2.75-3.36-7.13-4.01-11.16-4.61c-4.16-0.62-8.39-0.79-12.59-0.52c-4.4,0.29-8.82,0.76-13.16,1.54
	c-4.42,0.79-8.76,1.97-13.1,3.11c-17.59,4.65-34.78,11.17-51.38,18.59c-16.56,7.4-32.27,16.54-47.33,26.63
	c-7.83,5.25-15.43,10.87-22.72,16.85c-1.56,1.28-3.11,2.57-4.65,3.88c5.05-7.19,10.37-14.19,15.9-21
	c14.83-18.26,31.64-34.93,50.51-49c0.3-0.22,0.6-0.44,0.9-0.66c1.12,0.34,2.28-0.17,3-1.13c0.58-0.77,1.17-1.54,1.77-2.31
	c2.8-1.98,5.64-3.91,8.51-5.79c0.07-0.02,0.14-0.04,0.21-0.07c10.72-4.17,21.53-7.94,32.92-9.78c5.68-0.92,11.4-1.53,17.09-2.34
	c5.81-0.83,11.56-2.04,17.38-2.82c2.08-0.28,4.16-0.53,6.24-0.76c-0.48,0.95-0.77,1.96-0.78,3.03c-0.01,7.95,10.63,7.33,15.93,6.15
	c3.18-0.71,6.41-1.88,9.19-3.6c1.56-0.97,2.92-2.18,4.33-3.36c0.79-0.66,1.82-1.3,2.37-2.19c0.59-0.95,0.79-2.24,1.11-3.3
	c0.58-1.91,0.74-3.47-0.21-5.29c-0.78-1.48-2.02-2.68-3.4-3.59c-2.52-1.67-5.67-2.47-8.65-2.64c-4.02-0.23-7.72,0.99-10.86,3.48
	c-1.56,1.24-2.8,2.73-3.81,4.37c-0.69,0.08-1.38,0.15-2.07,0.22c-2.99,0.28-5.97,0.62-8.95,1c-5.94,0.75-11.79,1.94-17.7,2.83
	c-8.4,1.27-16.78,2.16-25.05,3.87c4.95-2.57,9.98-5,15.07-7.28c19.1-8.55,39.13-14.94,59.62-19.2c10.7-2.23,21.48-4.01,32.42-4.43
	c11.1-0.43,22.22,0.25,33.25,1.51c2.96,0.34,5.9,0.74,8.85,1.17c1.03,0.58,2.06,1.16,3.09,1.74c0.18,0.66,0.59,1.28,1.33,1.76
	c5.08,3.27,11.25,4.57,16.17,8.07c2.5,1.78,4.7,3.87,6.99,5.89c2.43,2.14,5.55,3.65,8.48,4.95c5.98,2.65,11.53,5.73,16.97,9.39
	c5.4,3.63,10.61,7.55,15.89,11.36c9.56,6.88,19.76,14.03,31.53,16.35c5.05,0.99,10.2,1.2,15.3,0.46
	C762.78,665.59,767.8,664.09,769.96,660.18z M637.59,544.41c0.04,0.03,0.06,0.04,0.08,0.06c0.07,0.07,0.14,0.13,0.2,0.21
	c0.05,0.09,0.08,0.13,0.11,0.14c0,0.02,0,0.04,0.01,0.07c0.01,0.1,0.02,0.17,0.02,0.21c-0.01-0.12-0.02-0.37,0.11,0.13
	c0.04,0.15,0.05,0.31,0.08,0.47c-0.06,0.23-0.13,0.46-0.2,0.69c-0.01-0.86-0.32-1.58-0.81-2.12
	C637.35,544.3,637.62,544.39,637.59,544.41z M677.91,470.56c9.47-7.1,19.7-12.88,30.45-17.8c10.92-5.01,22.16-9.44,33.47-13.5
	c11.06-3.97,22.36-7.46,33.89-9.79c6.12-1.24,12.24-1.89,18.48-1.36c5.01,0.42,11.22,1.41,13.81,6.19
	c-0.06,0.66-0.12,1.31-0.18,1.97c-1.46,1.99-3.2,3.78-5.22,5.2c-1.08,0.76-2.29,1.32-3.37,2.08c-1.05,0.75-2.11,1.46-3.21,2.14
	c-4.74,2.92-9.84,4.79-15.01,6.79c-11.04,4.26-22.34,7.8-33.71,11.09c-16.33,4.71-32.74,9.13-49.15,13.57
	c11.67-4.17,23.4-8.18,35.06-12.36c6.56-2.35,13.09-4.75,19.59-7.27c1.29-0.5,0.46-2.75-0.85-2.28
	c-23.32,8.45-46.99,15.88-70.19,24.64c-4.69,1.77-9.35,3.62-13.99,5.52c-3.7,1-7.4,2.03-11.06,3.19c-0.03,0.01-0.06,0.02-0.09,0.03
	C663.49,482.33,670.46,476.14,677.91,470.56z M749.38,392.13c0.07,0.75-0.13,1.5-0.48,2.22c0.25-1.41,0.08-2.82-0.49-4.14
	C749.05,390.59,749.3,391.27,749.38,392.13z M776.55,319.89c7.03-4.4,14.54-8.12,22.44-10.67c4.02-1.3,8.14-2.33,12.28-3.12
	c2.05-0.39,4.13-0.72,6.21-0.92c2.07-0.2,4.23-0.47,6.32-0.37c1.02,0.05,2.02,0.33,3.03,0.35c0.29,0.01,0.49,0,0.65,0.01
	c-0.56,1.23-1.42,2.15-2.43,3.31c-1.24,1.42-2.75,2.39-4.25,3.5c-3.2,2.37-6.58,4.44-10.03,6.41c-7.42,4.21-14.95,8.27-22.5,12.24
	c-15.08,7.91-30.43,15.23-45.75,22.64c-1.13,0.55-2.25,1.1-3.37,1.66C749.89,341.44,761.85,329.08,776.55,319.89z M714.83,357.76
	c-1.68-2.49-3.26-5.06-5.16-7.39c-1.94-2.38-4.12-4.55-6.31-6.7c-8.51-8.35-16.42-17.38-20.97-28.55c-1.6-3.93-3.99-9.5-1.75-13.61
	c1.04-1.9,2.87-2.66,4.66-2.38c1.68,0.27,3.73,1.31,5.45,2.36c4.94,3.03,8.58,7.69,11.82,12.41c3.6,5.24,7.17,10.58,9.81,16.39
	c2.88,6.33,4.96,13.25,6.42,20.05c1.06,4.93,1.03,9.77,0.51,14.66C718,362.48,716.42,360.1,714.83,357.76z M596.43,526.03
	c-0.1,0.18-0.2,0.36-0.3,0.54c0.11-0.37,0.24-0.74,0.35-1.12C596.46,525.64,596.45,525.83,596.43,526.03z M600.89,457.07
	c-1.66-7.22-4.56-14.27-9-20.24c-4.43-5.96-10.62-10.23-16.76-14.26c-6.11-4.01-12.02-8.05-16.9-13.56
	c-4.66-5.27-8.17-11.38-10.71-17.93c-2.1-5.42-4.28-11.92-2.73-17.76c0.34-1.29,0.86-2.45,1.52-3.61c0.16-0.28,0.33-0.56,0.51-0.83
	c0.02-0.03,0.1-0.14,0.18-0.24c0.1,0.11,0.18,0.2,0.19,0.2c1.14,1.24,2.06,2.72,2.99,4.12c4.02,6.08,7.79,12.49,14.07,16.53
	c5.18,3.33,11.29,4.52,17.35,4.92c5.53,0.36,11.1,0.08,16.6,0.81c4.98,0.66,9.61,2.57,13.01,6.55c8.3,9.7,10.29,23.56,10.15,35.87
	c-0.31,28.28-8.71,56.31-21.34,81.51c0.04-0.97,0.07-1.94,0.11-2.91c0.41-8.96,2.32-17.63,3.93-26.42
	c1.62-8.87,3.06-17.76,4.49-26.66c1.2-7.48,1.23-14.88,0.07-22.37c-1.29-8.28-3.83-16.3-6.59-24.2c-0.67-1.91-3.76-1.21-3.09,0.72
	c4.85,13.91,8.96,28.46,6.81,43.32c-0.8,5.54-1.72,11.07-2.67,16.59C602.95,470.47,602.4,463.65,600.89,457.07z M418.2,595
	c0.29-0.73,0.48-1.49,0.6-2.27c0.29-1.39,0.45-2.8,0.49-4.19c0.16,1.67,0.04,3.37-0.45,4.98c-0.19,0.62-0.44,1.2-0.72,1.75
	C418.14,595.19,418.17,595.09,418.2,595z M370.54,739.27c-0.39-3.1-0.69-6.21-1.23-9.29c-1.07-5.99-2.98-11.87-5.07-17.57
	c-4.27-11.68-9.63-22.89-15.78-33.7c-6.15-10.81-13.03-21.18-20.07-31.42c-3.8-5.52-7.65-11.01-11.53-16.48
	c-3.64-5.14-7.4-10.21-10.72-15.56c-1.6-2.58-2.96-5.26-4.42-7.91c-1.25-2.27-2.08-4.71-2.47-7.27c-0.74-4.99,4.76-7.97,8.87-9.02
	c5.1-1.3,10.04-1.3,15.05,0.37c5.19,1.73,9.77,4.86,14.05,8.21c4.63,3.62,8.82,7.83,12.39,12.5c3.55,4.64,6.31,9.88,8.82,15.14
	c5.04,10.58,8.7,21.73,11.51,33.09c2.85,11.51,5.31,23.3,6.19,35.15c0.46,6.23,0.51,12.49,0.02,18.72
	c-0.01,0.12-0.03,0.25-0.04,0.37c-0.36-4.02-0.86-8.02-1.53-11.95c-1.33-7.83-3.77-15.4-7.54-22.41
	c-4.55-8.46-9.55-16.69-14.73-24.78c-5.83-9.08-11.94-17.98-18.12-26.82c-1.17-1.67-4-0.19-2.83,1.49
	c10.65,15.24,21.1,30.66,30.23,46.87c4.01,7.11,7.31,14.25,9.07,22.26c1.64,7.44,2.28,15.12,2.72,22.71
	c0.16,2.79,0.26,5.61,0.18,8.41c-0.16,0.72-0.3,1.44-0.46,2.15c-0.68,3.02-1.4,6.02-2.1,9.03c-0.05,0.23-0.07,0.45-0.08,0.68
	C370.8,741.26,370.66,740.26,370.54,739.27z M383.08,741.92c3.58-3.72,7.57-7.07,11.52-10.38c7.86-6.6,16.07-12.79,24.61-18.49
	c16.71-11.16,34.13-21.03,52.64-28.9c9.24-3.93,18.6-7.58,28.13-10.74c4.79-1.59,9.63-3.05,14.5-4.36
	c4.75-1.28,9.52-2.58,14.37-3.41c8.88-1.53,18.78-2.45,27.58,0.02c1.56,0.44,2.84,1.2,3.58,2.64c0.97,1.89,0.48,4.04,0.33,6.08
	c-0.27,3.74-1.27,7.27-2.12,10.93c-0.87,3.72-1.45,7.49-0.88,11.31c0.3,1.99,0.97,3.96,1.91,5.74c0.5,0.95,1.15,1.81,1.76,2.69
	c0.84,1.2,1.61,2.63,2.75,3.56c1.92,1.55,4,2.76,6.26,3.74c2.34,1.01,4.7,1.33,7.14,1.93c4.42,1.08,9.1,2.1,13.25,4.01
	c1.07,0.49,2.1,1.07,3.06,1.74c-0.3,0.1-0.61,0.19-0.96,0.24c-1.83,0.27-3.72,0.45-5.56,0.6c-4.08,0.34-8.21,0.4-12.29,0.12
	c-8.26-0.58-16.35-2.78-24.56-3.83c-8.49-1.09-16.98-2.04-25.53-2.65c-8.64-0.62-17.16-1.94-25.77-2.81
	c-16.5-1.66-33.49-1.25-49.95,0.79c-2.62,0.32-5.22,0.73-7.82,1.21c2.55-1.12,5.11-2.21,7.69-3.26
	c17.26-7.01,35.22-12.4,53.56-15.69c10.29-1.85,20.7-3.01,31.13-3.69c1.65-0.11,1.78-2.63,0.07-2.61
	c-18.75,0.2-37.46,3.59-55.47,8.63c-18.15,5.08-35.78,12.03-52.64,20.46c-0.65,0.33-1.29,0.67-1.94,1
	c-7.15,2.7-13.91,6.32-20.42,10.32c-7.27,4.46-14.17,9.46-21.13,14.38C382.3,742.78,382.68,742.34,383.08,741.92z M469.33,561.1
	c-1.77-15.33-7.14-31.26-17.78-42.76c-11.27-12.2-26.79-18.95-39.98-28.68c-6.09-4.5-12.3-10.01-15.8-16.84
	c-1.48-2.88-2.76-6.5-2.14-9.79c0.08-0.41,0.24-0.8,0.3-1.22c0.02-0.11-0.02-0.68,0.05-0.81c0.17-0.28,0.6-0.4,0.87-0.6
	c0.15-0.11,0.52-0.46,0.69-0.62c0.15,0.12,1.32,0.28,1.49,0.3c1.02,0.11,2,0.35,2.98,0.64c4.08,1.23,7.97,3.19,11.94,4.76
	c4.28,1.69,8.63,3.27,13.13,4.26c8.45,1.86,16.94,1.33,25.36-0.42c4.57-0.95,9.08-2.08,13.72-2.62c2.22-0.26,4.39-0.68,6.61-0.39
	c2.05,0.27,4.26,0.28,6.11,1.28c6.49,3.51,11.14,10.06,13.33,16.99c2.15,6.82,2.52,14.02,2.45,21.12
	c-0.08,8.74-0.65,17.47-1.52,26.17c-1.82,18.3-5.02,36.53-10.62,54.07c-2.9,9.08-5.71,18.2-9.14,27.1
	c-1.78,4.62-3.8,9.11-5.99,13.51c0.24-0.97,0.48-1.95,0.68-2.92c0.6-2.85,0.9-5.78,1.33-8.66c0.98-6.64,2.17-13.28,4.43-19.62
	c1.69-4.74,3.61-9.36,5.1-14.17c5.68-18.35,8.5-39.17,2.3-57.76c-3.53-10.6-10.05-19.69-19.02-26.36c-1.65-1.23-3.33,1.49-1.69,2.72
	c7.85,5.84,13.8,13.84,17.14,23.04c3.28,9.04,4.18,18.77,3.67,28.32c-0.52,9.9-2.53,19.68-5.46,29.14
	c-1.49,4.81-3.41,9.43-5.1,14.17c-0.03,0.08-0.05,0.17-0.08,0.25C470.21,583.56,470.63,572.3,469.33,561.1z M462.26,642.26
	c0.14,0.14,0.27,0.27,0.42,0.4c0.13,0.11,0.27,0.17,0.4,0.21c-1.51,1.74-2.99,3.49-4.44,5.28
	C459.86,646.19,461.07,644.23,462.26,642.26z M651.22,593.17c4.54-2.61,9.09-5.19,13.65-7.76c8.76-4.93,17.28-10.08,25.56-15.77
	c15.95-10.96,31.77-22.5,50.15-29.12c4.18-1.51,8.71-3.05,13.17-3.31c2.2-0.13,4.41-0.04,6.54,0.56c1.67,0.47,3.81,1.57,4.92,2.4
	c-0.18-0.13,0.49,0.7,0.2,0.19c0.14,0.24,0.08,0.16,0.08,0.16c0.01,0-0.03,0.26,0,0.12c0.04-0.19-0.07,0.6-0.06,0.55
	c-0.09,0.33-0.4,0.73-0.65,1.11c-1.32,1.96-2.54,4.03-4.15,5.77c-2.99,3.24-6.57,5.88-10.28,8.24c-3.8,2.42-7.75,4.57-11.65,6.8
	c-4.36,2.49-8.67,5.06-13.08,7.46c-8.76,4.76-17.95,8.2-27.46,11.14c-7.88,2.44-15.79,4.7-23.77,6.79
	c7.9-3.78,15.48-8.21,23.05-12.58c5.4-3.12,10.81-6.2,16.36-9.03c1.84-0.94,0.34-3.76-1.49-2.83c-9.77,4.99-19.09,10.79-28.69,16.09
	c-4.71,2.61-9.5,5.09-14.42,7.28c-5.15,2.29-10.48,4.01-15.76,5.97c-0.46,0.17-0.92,0.35-1.38,0.53c-1.09,0.23-2.18,0.46-3.27,0.67
	C649.61,594.11,650.41,593.64,651.22,593.17z M756.74,660.03c-10.1,1.29-19.87-2.16-28.42-7.28c-10.76-6.45-20.4-14.54-30.89-21.4
	c-1.2-0.78-2.42-1.55-3.64-2.29c3.89,1.87,7.71,3.82,11.53,5.85c4.61,2.45,9.33,4.7,14.57,5.29c1.56,0.18,1.98-2.4,0.43-2.73
	c-5.22-1.11-9.97-3.47-14.64-5.98c-4.88-2.63-9.85-5.03-14.89-7.33c-6.49-2.97-13.06-5.77-19.67-8.47
	c-1.64-1.41-3.34-2.79-5.14-3.92c-1.68-1.05-3.47-1.9-5.28-2.69c2.07,0.36,4.14,0.73,6.21,1.11c11.87,2.16,23.64,4.59,35.12,8.38
	c11.47,3.78,22.27,8.98,32.77,14.92c8.31,4.7,16.42,9.95,23.95,15.84c1.46,1.14,2.87,2.37,4.13,3.74c0.43,0.46,1.01,1.18,1.2,1.48
	c0.17,0.28,0.35,0.58,0.47,0.89c0.14,0.37-0.02,0-0.03-0.05c0.03,0.15,0.1,0.33,0.1,0.48C764.57,659.05,759.25,659.71,756.74,660.03
	z"/>
</svg>
