<svg xmlns="http://www.w3.org/2000/svg" viewBox="300 100 1000 600">
  <g transform="rotate(180, 750, 500) scale(1.1)" >
  <path fill="none" d="M0 610 l0 -610 740 0 740 0 0 610 0 610 -740 0 -740 0 0 -610z m748
  357 c6 -30 -7 -67 -23 -67 -11 0 -15 12 -15 46 0 38 3 45 17 42 10 -2 19 -11
  21 -21z m-144 -42 c28 -26 32 -40 14 -51 -13 -9 -71 52 -63 66 9 15 20 12 49
  -15z m292 14 c3 -6 -7 -25 -25 -42 -24 -25 -33 -29 -43 -19 -9 9 -6 18 17 42
  31 33 40 36 51 19z m-43 -104 c9 -8 18 -28 22 -45 l7 -30 83 0 c67 0 87 -4
  106 -19 23 -19 24 -24 27 -203 2 -100 1 -197 -3 -215 -12 -65 -3 -63 -367 -63
  -294 0 -333 2 -350 17 -16 15 -18 36 -18 234 l0 219 26 17 c14 9 30 27 34 39
  18 46 110 41 125 -7 9 -27 27 -19 36 15 14 53 23 56 145 56 86 0 116 -3 127
  -15z"/>
  <path stroke="white" stroke-width="15" fill="none" d="M620 794 c-6 -14 -10 -27 -10 -30 0 -2 52 -4 115 -4 63 0 115 2 115
  4 0 3 -4 16 -10 30 -9 25 -12 26 -105 26 -93 0 -96 -1 -105 -26z"/>
  <path stroke="white" stroke-width="15" fill="none" d="M455 770 c-4 -6 7 -10 25 -10 18 0 29 4 25 10 -3 6 -15 10 -25 10
  -10 0 -22 -4 -25 -10z"/>
  <path stroke="white" stroke-width="15" fill="none" d="M407 713 c-4 -3 -7 -22 -7 -41 l0 -34 93 6 c71 4 103 11 141 31 66
  33 126 33 186 -1 36 -21 63 -27 137 -31 101 -6 112 -1 99 52 l-6 25 -319 0
  c-175 0 -321 -3 -324 -7z m71 -30 c-2 -12 -12 -18 -28 -18 -16 0 -26 6 -28 18
  -3 13 3 17 28 17 25 0 31 -4 28 -17z m435 10 c9 -9 -13 -34 -24 -27 -14 8 -11
  34 4 34 8 0 17 -3 20 -7z m123 -4 c10 -17 -17 -30 -56 -27 -24 2 -36 8 -38 21
  -3 14 4 17 42 17 25 0 48 -5 52 -11z"/>
  <path stroke="white" stroke-width="15" fill="none" d="M664 650 c-11 -4 -34 -24 -52 -44 -27 -31 -32 -44 -32 -90 0 -156
  179 -210 274 -82 26 35 27 120 1 159 -37 57 -126 84 -191 57z m61 -60 c6 0 24
  2 40 6 42 8 78 -22 78 -65 0 -25 -11 -43 -48 -81 -27 -28 -57 -50 -68 -50 -10
  0 -40 21 -67 46 -41 38 -50 53 -50 80 0 48 32 78 73 70 18 -4 37 -6 42 -6z"/>
  <path stroke="white" stroke-width="15" fill="none" d="M657 553 c-14 -14 -6 -50 16 -69 52 -46 53 -46 86 -18 38 32 53 57
  45 78 -9 23 -40 20 -59 -6 l-16 -23 -19 23 c-18 22 -40 28 -53 15z"/>
  <path stroke="white" stroke-width="15" fill="none" d="M400 500 l0 -110 89 0 89 0 -20 38 c-19 37 -21 122 -3 165 6 15 -1
  17 -74 17 l-81 0 0 -110z"/>
  <path stroke="white" stroke-width="15" fill="none" d="M906 565 c14 -48 10 -92 -12 -137 -8 -15 -14 -30 -14 -33 0 -3 39 -4
  88 -3 l87 3 0 105 0 105 -82 3 -81 3 14 -46z"/>
  <path stroke="white" stroke-width="15" fill="none" d="M400 325 l0 -25 324 0 c293 0 324 2 330 17 4 9 3 20 -2 25 -13 13
  -240 3 -290 -13 -38 -12 -49 -11 -91 4 -35 12 -80 17 -160 17 l-111 0 0 -25z"/>
  </g>
</svg>
