<svg version="1.1" id="Capa_1" xmlns="http://www.w3.org/2000/svg" xmlns:xlink="http://www.w3.org/1999/xlink" x="0px" y="0px"
     viewBox="0 0 283.46 283.46" style="enable-background:new 0 0 283.46 283.46;" xml:space="preserve">
    <style type="text/css">
        .st0 { fill: #13ADB9; }
        .st1 { fill: #FFFFFF; }
        .swing-bounce-animation {
            animation: swing 2s ease-in-out infinite;
            transform-origin: center; /* Para que gire alrededor de su centro */
        }
        @keyframes swing {
            0%, 100% { transform: rotate(0deg) translateY(0); }
            25% { transform: rotate(5deg) translateY(-10px); } /* Aumenta el salto */
            50% { transform: rotate(-5deg) translateY(0); }
            75% { transform: rotate(5deg) translateY(-10px); }
        }
    </style>
    
    <!-- Fondo gris redondeado -->
    <circle cx="141.73" cy="141.73" r="80" fill="#D3D3D3" />
    
    <!-- Contenido original -->
    <g class="swing-bounce-animation">
        <path class="st0" d="M 171.88 169.64 v -60.21 c 0 -0.01 0 -0.38 -0.16 -0.74 c -0.4 -0.92 -1.48 -1.33 -2.4 -0.92 l -47.75 21.27 c -0.69 0.31 -1.09 0.99 -1.08 1.7 c 0 0 0 0 0 0 v 40.79 c -1.26 -0.88 -2.76 -1.39 -4.34 -1.39 c -1.95 0 -3.79 0.8 -5.27 2.25 c -1.48 -1.45 -3.32 -2.25 -5.27 -2.25 c -3.58 0 -6.74 2.59 -7.68 6.3 c -0.49 1.93 -0.6 5.01 1.7 8.68 c 2.04 3.25 5.53 6.24 10.38 8.89 c 0.27 0.15 0.57 0.22 0.87 0.22 c 0.3 0 0.6 -0.07 0.87 -0.22 c 4.85 -2.65 8.35 -5.64 10.39 -8.89 c 1.59 -2.54 2.03 -4.79 1.99 -6.58 v -27.75 l 43.87 -19.79 v 31.82 c -1.25 -1 -2.76 -1.39 -4.34 -1.39 c -1.95 0 -3.66 0.57 -4.66 1.57 c -1.48 -1.45 -3.32 -2.25 -5 -2 c -3.58 0 -6.74 2.59 -7.68 6.3 c -0.49 1.93 -0.6 5.01 1.7 8.68 c 2.04 3.25 5.53 6.24 10.38 8.89 c 0.27 0.15 0.57 0.22 0.87 0.22 s 0.6 -0.07 0.87 -0.22 c 4.85 -2.65 8.35 -5.64 10.39 -8.89 C 171 174 172 172 172 170 z M 101 177 C 101 177 101 177 101 177 c 0.53 -2.07 2.28 -3.56 4.16 -3.56 c 1.43 0 2.75 0.88 3.72 2.48 c 0.33 0.54 0.92 0.88 1.55 0.88 h 0 c 0.64 0 1.22 -0.33 1.55 -0.87 c 0.97 -1.6 2.29 -2.48 3.72 -2.48 c 1.89 0 3.64 1.5 4.16 3.56 c 0.4 1.57 0.86 7.07 -8.86 13.99 C 104 188 101 182 101 179 z M 150 168.44 c 0.53 -2.07 2.28 -3.56 4.16 -3.56 c 1.43 0 2.75 0.88 3.72 2.48 c 0.33 0.54 0.92 0.88 1.55 0.88 h 0 c 0.63 0 1.22 -0.33 1.55 -0.87 c 0.97 -1.6 2.29 -2.48 3.72 -2.48 c 1.89 0 3.64 1.5 4.16 3.56 c 0.4 1.57 0.86 7.07 -9.86 13.55 C 153 178 152 176 150 172 z M 124 148 v -14.82 l 44 -19.18 v 14.98 L 124 148 z"/>
    </g>
</svg>
