<?xml version="1.0" encoding="utf-8"?>
<!-- Generator: Adobe Illustrator 27.8.1, SVG Export Plug-In . SVG Version: 6.00 Build 0)  -->
<svg version="1.1" id="Capa_1" xmlns="http://www.w3.org/2000/svg" xmlns:xlink="http://www.w3.org/1999/xlink" x="0px" y="0px"
	 viewBox="0 0 283.46 283.46" style="enable-background:new 0 0 283.46 283.46;" xml:space="preserve">
<style type="text/css">
	.st0{fill:#13ADB9;}
	.st1{fill:#FFFFFF;}
</style>
<g>
	<path class="st1" d="M100.44,134.55c0.41-1.44,0.94-2.81,2.04-3.89c1.35-1.33,2.99-1.98,4.96-2.09c0-0.62-0.01-1.22,0-1.83
		c0.07-2.63,2.01-4.87,4.63-5.08c1.91-0.15,3.86-0.17,5.77,0c2.68,0.23,4.59,2.46,4.65,5.16c0.01,0.55,0,1.1,0,1.72
		c1.31,0,2.58,0,3.96,0c0.6-2.01,1.21-4.06,1.82-6.12c0.17-0.59,0.33-1.18,0.53-1.76c0.73-2.18,2.66-3.61,4.96-3.61
		c7.65-0.02,15.29-0.02,22.94-0.01c2.51,0,4.44,1.53,5.18,4.04c0.73,2.48,1.46,4.96,2.21,7.51c0.34,0,0.65,0,0.97,0
		c5.78,0,11.56,0,17.33,0c4.14,0,6.49,1.8,7.6,5.81c0.01,0.05,0.07,0.09,0.1,0.14c0,16.23,0,32.45,0,48.68
		c-0.4,0.95-0.69,1.97-1.22,2.84c-1.07,1.76-2.79,2.63-4.73,3.11c-25.91,0-51.83,0-77.74,0c-0.19-0.06-0.37-0.14-0.56-0.19
		c-2.11-0.56-3.7-1.78-4.66-3.74c-0.31-0.64-0.49-1.35-0.73-2.02C100.44,167,100.44,150.77,100.44,134.55z M145.25,177.62
		c10.43,0.06,19.19-8.52,19.27-18.89c0.09-10.81-8.4-19.54-19.07-19.63c-10.64-0.08-19.38,8.48-19.45,19.07
		C125.93,168.91,134.48,177.55,145.25,177.62z M103.95,142.54c0.18,0.03,0.26,0.06,0.34,0.06c8.02,0,16.05,0.01,24.07-0.01
		c0.32,0,0.71-0.23,0.95-0.46c8.91-8.68,22.86-8.7,31.83-0.07c0.31,0.3,0.85,0.52,1.28,0.53c7.76,0.03,15.52,0.03,23.28,0.03
		c0.28,0,0.56,0,0.87,0c0-2.2,0-4.27,0-6.34c-0.01-2.87-1.31-4.17-4.16-4.17c-23.2,0-46.39,0-69.59,0c-1.81,0-3.62-0.02-5.43,0.01
		c-1.84,0.03-3.37,1.41-3.43,3.2C103.89,137.7,103.95,140.09,103.95,142.54z M103.94,177.62c0,1.42,0,2.71,0,3.99
		c0,2.71,1.37,4.06,4.1,4.06c15.2,0,30.41,0,45.61,0c9.72,0,19.43,0,29.15-0.01c1.85,0,3.36-0.9,3.58-2.56
		c0.24-1.79,0.05-3.63,0.05-5.48c-0.39,0-0.8,0-1.21,0c-8.96,0-17.92-0.01-26.88,0.02c-0.57,0-1.21,0.18-1.71,0.45
		c-7.61,4.09-15.2,4.08-22.8-0.03c-0.46-0.25-1.03-0.42-1.55-0.42c-9.08-0.03-18.15-0.02-27.23-0.02
		C104.72,177.62,104.38,177.62,103.94,177.62z M161.91,174.06c8.22,0,16.42,0,24.61,0c0-9.35,0-18.64,0-27.91
		c-7.35,0-14.62,0-21.92,0C169.98,156.07,169.05,165.33,161.91,174.06z M128.65,174.08c-7.22-8.72-8.09-18.01-2.75-27.93
		c-7.3,0-14.6,0-21.9,0c0,9.35,0,18.64,0,27.93C112.25,174.08,120.44,174.08,128.65,174.08z M160.37,128.55
		c-0.08-0.31-0.13-0.56-0.2-0.8c-0.53-1.82-1.07-3.63-1.6-5.45c-0.42-1.42-0.87-1.76-2.38-1.76c-6.94,0-13.88,0-20.82,0
		c-2.9,0-2.91-0.01-3.73,2.77c-0.51,1.72-1,3.45-1.52,5.24C140.25,128.55,150.27,128.55,160.37,128.55z M110.99,128.53
		c2.69,0,5.32,0,8.01,0c0-0.5,0-0.93,0-1.37c-0.01-1.42-0.66-2.06-2.11-2.07c-0.93-0.01-1.87,0.04-2.8-0.01
		C110.88,124.88,110.8,126.12,110.99,128.53z"/>
	<path class="st1" d="M145.79,99.53c0.94,0.51,1.28,1.3,1.24,2.37c-0.06,2.01-0.01,4.02-0.02,6.02c0,1.29-0.66,2.08-1.71,2.1
		c-1.1,0.03-1.79-0.77-1.79-2.11c-0.01-2.01,0.04-4.02-0.02-6.02c-0.03-1.07,0.29-1.86,1.24-2.37
		C145.09,99.53,145.44,99.53,145.79,99.53z"/>
	<path class="st1" d="M133.03,111.83c-0.36,0.45-0.67,1.02-1.14,1.35c-0.59,0.41-1.33,0.34-1.86-0.17c-1.75-1.7-3.49-3.42-5.18-5.19
		c-0.67-0.7-0.56-1.71,0.11-2.36c0.64-0.62,1.63-0.73,2.29-0.1c1.77,1.69,3.48,3.42,5.19,5.18
		C132.71,110.81,132.78,111.25,133.03,111.83z"/>
	<path class="st1" d="M157.66,111.41c0.1-0.2,0.24-0.7,0.56-1.03c1.57-1.63,3.18-3.24,4.81-4.82c0.82-0.8,1.84-0.8,2.56-0.06
		c0.72,0.73,0.7,1.74-0.11,2.56c-1.57,1.6-3.16,3.17-4.75,4.76c-0.57,0.57-1.25,0.75-2,0.44
		C158.06,112.98,157.68,112.45,157.66,111.41z"/>
	<path class="st1" d="M145.44,150.82c-0.03,0.03,0.09-0.09,0.2-0.21c2.15-2.46,4.82-3.33,7.95-2.4c3.12,0.93,4.87,3.17,5.51,6.3
		c0.62,3.06-0.3,5.79-2.34,8.01c-2.09,2.26-4.44,4.28-6.71,6.37c-1.09,1.01-2.26,1.94-3.4,2.89c-0.92,0.76-1.71,0.86-2.53,0.15
		c-3.15-2.73-6.35-5.41-9.38-8.27c-2.22-2.1-3.61-4.7-3.48-7.92c0.23-5.57,5.67-9.39,10.61-7.32
		C143.14,148.94,144.21,149.97,145.44,150.82z M134.76,156.37c0.02,0.14,0.05,0.52,0.13,0.88c0.46,2.11,1.85,3.62,3.36,5
		c2.11,1.93,4.32,3.74,6.47,5.63c0.41,0.36,0.7,0.35,1.11-0.01c1.38-1.21,2.85-2.32,4.2-3.57c1.49-1.39,2.97-2.81,4.29-4.35
		c1.24-1.45,1.78-3.21,1.27-5.14c-0.48-1.83-1.62-3.04-3.5-3.38c-1.77-0.32-3.14,0.45-4.12,1.89c-0.4,0.6-0.65,1.29-1,1.93
		c-0.19,0.35-0.38,0.75-0.68,0.99c-1,0.8-2.27,0.32-2.76-1c-0.61-1.64-1.47-3.08-3.23-3.68
		C137.53,150.62,134.79,152.91,134.76,156.37z"/>
	<path class="st1" d="M177.39,135.6c1.25,0,2.5-0.01,3.76,0c1.16,0.01,1.97,0.76,1.94,1.78c-0.02,1-0.79,1.71-1.92,1.71
		c-2.56,0.01-5.12,0.01-7.69,0c-1.18-0.01-1.97-0.74-1.94-1.78c0.02-1.01,0.78-1.7,1.92-1.71
		C174.77,135.59,176.08,135.6,177.39,135.6z"/>
	<path class="st1" d="M110.91,139.1c-0.58,0-1.16,0.02-1.74-0.01c-0.99-0.05-1.71-0.8-1.72-1.73c0-0.94,0.71-1.71,1.7-1.74
		c1.19-0.04,2.38-0.03,3.58,0c0.99,0.03,1.71,0.79,1.72,1.73c0,0.94-0.72,1.7-1.7,1.75C112.13,139.12,111.52,139.1,110.91,139.1z"/>
	<path class="st1" d="M168.03,137.32c0.01,0.97-0.8,1.78-1.77,1.77c-0.93-0.01-1.71-0.78-1.73-1.72c-0.02-0.96,0.8-1.79,1.76-1.77
		C167.23,135.61,168.01,136.39,168.03,137.32z"/>
</g>
</svg>
