<?xml version="1.0" encoding="utf-8"?>
<!-- Generator: Adobe Illustrator 27.8.1, SVG Export Plug-In . SVG Version: 6.00 Build 0)  -->
<svg version="1.1" id="Capa_1" xmlns="http://www.w3.org/2000/svg" xmlns:xlink="http://www.w3.org/1999/xlink" x="0px" y="0px"
	  viewBox="50 50 180 180" style="enable-background:new 0 0 283.46 283.46;" xml:space="preserve">
<style type="text/css">
	.st0{fill:#13ADB9;}
	.st1{fill:#FFFFFF;}
</style>
<path class="st1" d="M112.74,147.66c-2.87-0.25-3.7-1.15-3.71-3.79c-0.01-4.89-0.01-9.78,0-14.68c0.01-2.65,1.02-3.71,3.65-3.72
	c6.72-0.03,13.45-0.01,20.17-0.01c0.25,0,0.51-0.02,1.08-0.05c-1.8-1.28-3.4-2.3-4.85-3.5c-1.38-1.14-2.72-2.37-3.87-3.73
	c-4.52-5.36-3.66-11.48,2.1-15.52c4.72-3.32,9.81-2.2,13.34,2.89c2.52,3.64,4.12,7.68,5.42,11.87c0.08,0.25,0.19,0.49,0.3,0.77
	c1.05-2.31,1.9-4.62,3.11-6.72c1.92-3.32,4.42-6.12,8.74-5.75c3.6,0.31,6.35,2.25,8,5.42c1.54,2.96,0.82,5.87-1.23,8.3
	c-1.79,2.12-3.91,3.96-6.02,6.06c1.48,0,3.01,0,4.53,0c4.78,0,9.55-0.01,14.33,0c2.73,0.01,3.62,0.9,3.62,3.65
	c0.01,4.78,0,9.56,0,14.34c0,3.03-0.6,3.76-3.71,4.28c0,4.33,0,8.7,0,13.07c0,7.3,0.01,14.61-0.01,21.91c0,2.07-1.15,3.26-3.19,3.27
	c-19.51,0.01-39.02,0.01-58.54,0c-2.25,0-3.27-1.14-3.28-3.55c-0.01-10.91,0-21.82,0-32.73
	C112.74,149.08,112.74,148.42,112.74,147.66z M139.83,180.01c0-11.72,0-23.31,0-34.91c-7.1,0-14.08,0-21.06,0
	c0,11.7,0,23.26,0,34.91C125.82,180.01,132.79,180.01,139.83,180.01z M151.02,145.06c0,11.76,0,23.36,0,34.99
	c6.97,0,13.83,0,20.76,0c0-11.69,0-23.29,0-34.99C164.85,145.06,158.02,145.06,151.02,145.06z M115.04,141.29c8.39,0,16.6,0,24.77,0
	c0-3.39,0-6.61,0-9.77c-8.34,0-16.54,0-24.77,0C115.04,134.87,115.04,138.05,115.04,141.29z M151.04,141.34c8.18,0,16.27,0,24.44,0
	c0-3.34,0-6.56,0-9.87c-8.2,0-16.29,0-24.44,0C151.04,134.81,151.04,138.04,151.04,141.34z M141.32,122.54
	c-0.67-2.25-1.04-4.13-1.79-5.83c-1.29-2.9-2.69-5.77-4.33-8.48c-0.48-0.79-2.01-1.49-2.95-1.36c-3.38,0.44-4.99,4.39-2.91,7.03
	C132.39,117.75,136.62,120.05,141.32,122.54z M151.89,122.66c2.02-1.43,4.1-2.79,6.05-4.32c1.03-0.82,1.93-1.87,2.67-2.96
	c0.32-0.47,0.33-1.47,0.04-1.97c-1.24-2.13-3.76-2.29-5.21-0.31C153.4,115.86,152.41,119.09,151.89,122.66z"/>
</svg>
