<?xml version="1.0" standalone="no"?>
<!DOCTYPE svg PUBLIC "-//W3C//DTD SVG 20010904//EN"
 "http://www.w3.org/TR/2001/REC-SVG-20010904/DTD/svg10.dtd">
<svg version="1.0" xmlns="http://www.w3.org/2000/svg"
 width="512.000000pt" height="512.000000pt" viewBox="0 0 512.000000 512.000000"
 preserveAspectRatio="xMidYMid meet">
<metadata>
Created by potrace 1.16, written by Peter Selinger 2001-2019
</metadata>
<g transform="translate(0.000000,512.000000) scale(0.100000,-0.100000)"
fill="#000000" stroke="none">
<path d="M3860 4469 c-227 -47 -550 -112 -1175 -239 -512 -104 -638 -131 -665
-145 -37 -19 -79 -64 -104 -110 l-21 -40 -3 -1112 -2 -1112 -368 -3 c-350 -4
-370 -5 -427 -26 -129 -48 -245 -150 -308 -270 -115 -219 -77 -472 97 -647 78
-78 157 -124 252 -149 74 -19 402 -22 486 -5 186 38 349 191 414 389 18 52 19
133 24 1481 5 1506 3 1449 48 1463 10 3 386 80 837 171 451 91 911 184 1023
207 l203 41 27 -20 27 -20 0 -1069 0 -1069 -350 -3 c-315 -2 -357 -4 -416 -22
-97 -29 -156 -65 -234 -144 -114 -115 -157 -225 -157 -396 1 -166 56 -289 183
-403 121 -110 200 -137 428 -144 307 -10 424 28 581 190 51 52 115 182 129
261 15 84 15 2745 0 2815 -8 37 -23 64 -56 101 -87 97 -135 100 -473 29z m368
-2696 l-3 -248 -28 -61 c-34 -73 -110 -151 -185 -189 -73 -38 -227 -53 -390
-38 -104 9 -127 14 -180 43 -126 67 -202 184 -210 321 -11 194 108 359 293
405 34 8 153 13 378 13 l328 1 -3 -247z m-2343 -473 l0 -245 -31 -65 c-17 -36
-52 -86 -79 -113 -97 -98 -190 -122 -435 -115 -150 4 -159 6 -224 36 -81 38
-159 114 -195 192 -46 99 -40 256 13 350 34 62 116 137 180 167 60 27 66 28
281 34 121 3 281 5 355 5 l135 -1 0 -245z"/>
</g>
</svg>
