<?xml version="1.0" encoding="utf-8"?>
<!-- Generator: Adobe Illustrator 27.8.1, SVG Export Plug-In . SVG Version: 6.00 Build 0)  -->
<svg version="1.1" id="Capa_1" xmlns="http://www.w3.org/2000/svg" xmlns:xlink="http://www.w3.org/1999/xlink" x="0px" y="0px"
	 viewBox="0 0 283.46 283.46" style="enable-background:new 0 0 283.46 283.46;" xml:space="preserve">
<style type="text/css">
	.st0{fill:#13ADB9;}
	.st1{fill:#FFFFFF;}

	@keyframes sideToSide {
    0% , 100% {
        transform: translateX(0);
    }
    25% {
        transform: translateX(-10px);
    }
    50% {
        transform: translateX(0);
    }
    75% {
        transform: translateX(10px);
    }
}
	@keyframes bounce3D {
    0%, 100% {
        transform: scale(1) translateZ(0);
    }
    50% {
        transform: scale(1.2) translateZ(50px);
    }
}

 @keyframes side3D {
	    0% , 100% {
        transform: scale(1) translateX(0);
    }
    25% {
        transform: scale(1.1) translateX(-10px);
    }
    50% {
        transform: scale(1) translateX(0);
    }
    75% {
        transform: scale(1.1) translateX(10px);
    }
 }


.pulsing-circle {
    animation: side3D 2s ease-in-out infinite;
	transform-origin:center;
}
</style>
    <circle cx="141.73" cy="141.73" r="80" fill="#D3D3D3" />
	<g class='pulsing-circle'>
	<path class="st0" d="M140.64,133.95c-0.48,0-0.94,0.19-1.28,0.53c-0.34,0.34-0.53,0.81-0.53,1.29c0,0.48,0.19,0.95,0.53,1.28
		c0.34,0.34,0.81,0.53,1.28,0.53c0.48,0,0.95-0.19,1.29-0.53c0.34-0.34,0.53-0.81,0.53-1.28c0-0.48-0.19-0.95-0.53-1.29
		C141.59,134.14,141.12,133.95,140.64,133.95z"/>
	<path class="st0" d="M140.64,147.11c-0.48,0-0.94,0.19-1.28,0.53c-0.34,0.34-0.53,0.81-0.53,1.29c0,0.48,0.19,0.95,0.53,1.28
		c0.34,0.34,0.81,0.53,1.28,0.53c0.48,0,0.95-0.19,1.29-0.53c0.34-0.34,0.53-0.81,0.53-1.28c0-0.48-0.19-0.95-0.53-1.29
		C141.59,147.31,141.12,147.11,140.64,147.11z"/>
	<path class="st0" d="M140.64,160.28c-0.48,0-0.94,0.19-1.28,0.53c-0.34,0.34-0.53,0.8-0.53,1.28c0,0.48,0.19,0.95,0.53,1.28
		c0.34,0.34,0.81,0.53,1.28,0.53c0.48,0,0.95-0.19,1.29-0.53c0.34-0.34,0.53-0.8,0.53-1.28c0-0.48-0.19-0.95-0.53-1.28
		C141.59,160.47,141.12,160.28,140.64,160.28z"/>
	<path class="st0" d="M183,124.81l-26.86-7.92v-3.03c0-0.6-0.3-1.16-0.79-1.5c-0.5-0.34-1.13-0.41-1.69-0.19
		c0,0-10.55,4.17-10.62,4.21c-0.73-0.31-1.54-0.48-2.39-0.48c-0.85,0-1.65,0.17-2.39,0.48c-0.07-0.04-10.62-4.21-10.62-4.21
		c-0.56-0.22-1.19-0.15-1.69,0.19c-0.5,0.34-0.79,0.9-0.79,1.5v3.09l-26.86,7.87c-0.96,0.28-1.51,1.29-1.23,2.25
		c0.28,0.96,1.29,1.52,2.25,1.23l8.49-2.48l10.72,26.07l-5.59,4.15c-0.39,0.29-0.65,0.73-0.72,1.22c-0.07,0.49,0.07,0.98,0.37,1.36
		l26.25,33.52v7.34c0,1,0.81,1.82,1.82,1.82s1.82-0.81,1.82-1.82v-7.34l26.25-33.52c0.3-0.39,0.44-0.88,0.37-1.36
		c-0.07-0.49-0.32-0.92-0.72-1.22l-5.59-4.15l10.72-26.07l8.49,2.48c0.96,0.28,1.97-0.27,2.25-1.23
		C184.51,126.1,183.96,125.09,183,124.81z M146.03,119.07l6.47-2.55v11.05l-6.47-2.55c0.49-0.88,0.77-1.89,0.77-2.97
		C146.79,120.97,146.52,119.95,146.03,119.07z M140.64,119.52c1.39,0,2.52,1.13,2.52,2.52c0,1.39-1.13,2.52-2.52,2.52
		s-2.52-1.13-2.52-2.52C138.12,120.65,139.25,119.52,140.64,119.52z M128.78,116.52l6.47,2.55c-0.49,0.88-0.77,1.89-0.77,2.97
		c0,1.08,0.28,2.09,0.77,2.97l-6.47,2.55V116.52z M116.59,157.84l5.23-3.88c0.67-0.5,0.91-1.38,0.6-2.15l-11.12-27.02l11.85-3.47
		l13.97,62.75L116.59,157.84z M140.64,183.16l-11.54-51.81l8.92-3.51c0.08-0.03,0.16-0.07,0.23-0.11c0.74,0.31,1.54,0.48,2.39,0.48
		c0.85,0,1.65-0.17,2.39-0.48c0.07,0.04,0.15,0.08,0.23,0.11l8.92,3.51L140.64,183.16z M158.87,151.81c-0.32,0.77-0.07,1.65,0.6,2.15
		l5.23,3.88l-20.54,26.23l11.84-53.14l0.13-0.61l2-9l11.85,3.47L158.87,151.81z"/>
	</g>
</svg>

