<?xml version="1.0" encoding="UTF-8"?>
<svg id="d" data-name="Icons" xmlns="http://www.w3.org/2000/svg" width="1.739in" height="1.768in" viewBox="0 0 125.205 127.311">
  <g>
    <g>
      <line x1="39.329" y1="84.757" x2="36.433" y2="65.435" fill="none" stroke="#2e3c36" stroke-linecap="round" stroke-linejoin="round"/>
      <line x1="40.417" y1="81.741" x2="39.327" y2="58.826" fill="none" stroke="#2e3c36" stroke-linecap="round" stroke-linejoin="round"/>
      <line x1="42.186" y1="75.717" x2="46.322" y2="60.498" fill="none" stroke="#2e3c36" stroke-linecap="round" stroke-linejoin="round"/>
      <line x1="41.265" y1="84.159" x2="51.009" y2="64.801" fill="none" stroke="#2e3c36" stroke-linecap="round" stroke-linejoin="round"/>
    </g>
    <g>
      <line x1="35.558" y1="87.248" x2="19.007" y2="76.866" fill="none" stroke="#2e3c36" stroke-linecap="round" stroke-linejoin="round"/>
      <line x1="33.977" y1="84.46" x2="15.875" y2="70.366" fill="none" stroke="#2e3c36" stroke-linecap="round" stroke-linejoin="round"/>
      <line x1="30.557" y1="79.194" x2="21.7" y2="66.146" fill="none" stroke="#2e3c36" stroke-linecap="round" stroke-linejoin="round"/>
      <line x1="36.365" y1="85.39" x2="28.016" y2="65.39" fill="none" stroke="#2e3c36" stroke-linecap="round" stroke-linejoin="round"/>
    </g>
    <g>
      <line x1="35.626" y1="91.302" x2="17.034" y2="97.308" fill="none" stroke="#2e3c36" stroke-linecap="round" stroke-linejoin="round"/>
      <line x1="32.474" y1="90.721" x2="10.041" y2="95.529" fill="none" stroke="#2e3c36" stroke-linecap="round" stroke-linejoin="round"/>
      <line x1="26.242" y1="89.957" x2="10.552" y2="88.354" fill="none" stroke="#2e3c36" stroke-linecap="round" stroke-linejoin="round"/>
      <line x1="34.721" y1="89.49" x2="14.034" y2="83.029" fill="none" stroke="#2e3c36" stroke-linecap="round" stroke-linejoin="round"/>
    </g>
    <g>
      <line x1="38.775" y1="93.856" x2="31.425" y2="111.959" fill="none" stroke="#2e3c36" stroke-linecap="round" stroke-linejoin="round"/>
      <line x1="36.303" y1="95.897" x2="25.567" y2="116.172" fill="none" stroke="#2e3c36" stroke-linecap="round" stroke-linejoin="round"/>
      <line x1="31.712" y1="100.18" x2="20.4" y2="111.169" fill="none" stroke="#2e3c36" stroke-linecap="round" stroke-linejoin="round"/>
      <line x1="36.805" y1="93.385" x2="18.558" y2="105.079" fill="none" stroke="#2e3c36" stroke-linecap="round" stroke-linejoin="round"/>
    </g>
    <g>
      <line x1="42.755" y1="93.086" x2="51.898" y2="110.352" fill="none" stroke="#2e3c36" stroke-linecap="round" stroke-linejoin="round"/>
      <line x1="42.73" y1="96.291" x2="51.36" y2="117.548" fill="none" stroke="#2e3c36" stroke-linecap="round" stroke-linejoin="round"/>
      <line x1="43.06" y1="102.561" x2="44.206" y2="118.29" fill="none" stroke="#2e3c36" stroke-linecap="round" stroke-linejoin="round"/>
      <line x1="41.128" y1="94.292" x2="38.358" y2="115.786" fill="none" stroke="#2e3c36" stroke-linecap="round" stroke-linejoin="round"/>
    </g>
    <g>
      <line x1="44.724" y1="89.541" x2="63.828" y2="93.636" fill="none" stroke="#2e3c36" stroke-linecap="round" stroke-linejoin="round"/>
      <line x1="47.163" y1="91.621" x2="68.994" y2="98.673" fill="none" stroke="#2e3c36" stroke-linecap="round" stroke-linejoin="round"/>
      <line x1="52.178" y1="95.398" x2="64.964" y2="104.631" fill="none" stroke="#2e3c36" stroke-linecap="round" stroke-linejoin="round"/>
      <line x1="44.601" y1="91.563" x2="59.287" y2="107.502" fill="none" stroke="#2e3c36" stroke-linecap="round" stroke-linejoin="round"/>
    </g>
    <g>
      <line x1="43.274" y1="85.755" x2="58.691" y2="73.753" fill="none" stroke="#2e3c36" stroke-linecap="round" stroke-linejoin="round"/>
      <line x1="46.435" y1="85.223" x2="65.87" y2="73.033" fill="none" stroke="#2e3c36" stroke-linecap="round" stroke-linejoin="round"/>
      <line x1="52.552" y1="83.809" x2="67.843" y2="79.949" fill="none" stroke="#2e3c36" stroke-linecap="round" stroke-linejoin="round"/>
      <line x1="44.744" y1="87.148" x2="66.393" y2="86.144" fill="none" stroke="#2e3c36" stroke-linecap="round" stroke-linejoin="round"/>
    </g>
  </g>
  <polygon points="51.699 74.724 50.492 73.51 48.966 74.283 49.747 72.76 48.54 71.547 50.229 71.819 51.011 70.297 51.274 71.988 52.963 72.26 51.436 73.033 51.699 74.724" fill="#2e3c36" stroke="#2e3c36" stroke-linecap="round" stroke-linejoin="round"/>
  <polygon points="115.007 85.364 113.8 84.15 112.273 84.923 113.054 83.4 111.848 82.187 113.537 82.459 114.318 80.937 114.581 82.628 116.271 82.9 114.744 83.673 115.007 85.364" fill="#2e3c36" stroke="#2e3c36" stroke-linecap="round" stroke-linejoin="round"/>
  <polygon points="81.208 19.957 80.002 18.744 78.475 19.517 79.256 17.994 78.049 16.781 79.739 17.053 80.52 15.531 80.783 17.221 82.472 17.494 80.945 18.266 81.208 19.957" fill="#2e3c36" stroke="#2e3c36" stroke-linecap="round" stroke-linejoin="round"/>
  <polygon points="43.44 20.749 42.233 19.535 40.706 20.308 41.487 18.785 40.281 17.572 41.97 17.844 42.751 16.322 43.014 18.013 44.704 18.285 43.177 19.058 43.44 20.749" fill="#2e3c36" stroke="#2e3c36" stroke-linecap="round" stroke-linejoin="round"/>
  <polygon points="29.024 60.41 27.257 59.94 26.263 61.475 26.165 59.649 24.397 59.179 26.104 58.52 26.005 56.694 27.158 58.114 28.864 57.455 27.871 58.991 29.024 60.41" fill="none" stroke="#2e3c36" stroke-linecap="round" stroke-linejoin="round"/>
  <polygon points="71.541 9.961 69.773 9.491 68.78 11.026 68.681 9.2 66.914 8.73 68.62 8.071 68.521 6.245 69.675 7.665 71.381 7.006 70.387 8.542 71.541 9.961" fill="none" stroke="#2e3c36" stroke-linecap="round" stroke-linejoin="round"/>
  <polygon points="18.119 101.056 16.255 101.796 16.383 103.797 15.103 102.253 13.24 102.992 14.313 101.299 13.034 99.755 14.976 100.252 16.049 98.558 16.177 100.559 18.119 101.056" fill="none" stroke="#2e3c36" stroke-linecap="round" stroke-linejoin="round"/>
  <polygon points="49.276 46.652 47.412 47.391 47.54 49.392 46.261 47.848 44.397 48.588 45.47 46.894 44.191 45.35 46.133 45.848 47.206 44.154 47.334 46.155 49.276 46.652" fill="none" stroke="#2e3c36" stroke-linecap="round" stroke-linejoin="round"/>
  <polygon points="83.673 84.148 81.809 84.887 81.936 86.888 80.657 85.344 78.794 86.084 79.867 84.39 78.588 82.846 80.53 83.343 81.603 81.65 81.73 83.651 83.673 84.148" fill="none" stroke="#2e3c36" stroke-linecap="round" stroke-linejoin="round"/>
  <polygon points="31.408 118.089 30.103 118.83 30.404 120.3 29.296 119.288 27.991 120.029 28.611 118.662 27.503 117.65 28.995 117.818 29.615 116.451 29.917 117.921 31.408 118.089" fill="#2e3c36" stroke="#2e3c36" stroke-linecap="round" stroke-linejoin="round"/>
  <polygon points="63.442 90.305 61.394 90.486 60.932 92.489 60.128 90.597 58.079 90.778 59.63 89.428 58.826 87.535 60.589 88.593 62.14 87.243 61.679 89.247 63.442 90.305" fill="none" stroke="#2e3c36" stroke-linecap="round" stroke-linejoin="round"/>
  <polygon points="16.719 79.429 13.65 78.397 11.72 80.996 11.753 77.759 8.684 76.726 11.774 75.758 11.808 72.52 13.683 75.159 16.773 74.191 14.843 76.79 16.719 79.429" fill="#2e3c36" stroke="#2e3c36" stroke-linecap="round" stroke-linejoin="round"/>
  <polygon points="87.287 38.165 84.219 37.132 82.288 39.732 82.322 36.494 79.253 35.462 82.343 34.493 82.376 31.256 84.252 33.895 87.342 32.926 85.411 35.526 87.287 38.165" fill="#2e3c36" stroke="#2e3c36" stroke-linecap="round" stroke-linejoin="round"/>
  <polygon points="101.248 77.212 98.179 76.18 96.249 78.779 96.283 75.542 93.214 74.509 96.304 73.541 96.337 70.303 98.213 72.942 101.302 71.974 99.372 74.573 101.248 77.212" fill="#2e3c36" stroke="#2e3c36" stroke-linecap="round" stroke-linejoin="round"/>
  <polygon points="58.295 111.59 56.342 110.933 55.114 112.588 55.135 110.527 53.182 109.87 55.148 109.254 55.17 107.194 56.363 108.873 58.329 108.257 57.101 109.911 58.295 111.59" fill="none" stroke="#2e3c36" stroke-linecap="round" stroke-linejoin="round"/>
  <polygon points="63.642 52.628 61.689 51.971 60.461 53.625 60.482 51.565 58.529 50.908 60.495 50.291 60.517 48.231 61.711 49.91 63.677 49.294 62.448 50.948 63.642 52.628" fill="none" stroke="#2e3c36" stroke-linecap="round" stroke-linejoin="round"/>
  <polygon points="99.926 56.357 97.973 55.7 96.745 57.354 96.766 55.294 94.813 54.637 96.779 54.021 96.801 51.96 97.994 53.64 99.96 53.023 98.732 54.678 99.926 56.357" fill="none" stroke="#2e3c36" stroke-linecap="round" stroke-linejoin="round"/>
  <polygon points="42.895 90.935 40.203 90.438 38.898 92.844 38.539 90.13 35.847 89.632 38.317 88.452 37.959 85.738 39.844 87.723 42.315 86.543 41.01 88.95 42.895 90.935" fill="none" stroke="#2e3c36" stroke-linecap="round" stroke-linejoin="round"/>
  <path d="m58.591,27.705c-1.398-2.762-4.692-9.273-10.442-12.31" fill="none" stroke="#2e3c36" stroke-linecap="round" stroke-linejoin="round"/>
  <path d="m57.97,10.379c-.171,3.091-.574,10.376,2.886,15.882" fill="none" stroke="#2e3c36" stroke-linecap="round" stroke-linejoin="round"/>
  <path d="m57.513,23.068c-1.203-2.852-4.037-9.576-9.563-13.005" fill="none" stroke="#2e3c36" stroke-linecap="round" stroke-linejoin="round"/>
  <path d="m57.749,30.058c-2.846-1.217-9.555-4.087-15.912-2.718" fill="none" stroke="#2e3c36" stroke-linecap="round" stroke-linejoin="round"/>
  <path d="m46.137,17.186c1.856,2.478,6.23,8.317,12.42,10.311" fill="none" stroke="#2e3c36" stroke-linecap="round" stroke-linejoin="round"/>
  <path d="m53.942,27.199c-2.755-1.412-9.248-4.74-15.685-3.816" fill="none" stroke="#2e3c36" stroke-linecap="round" stroke-linejoin="round"/>
  <path d="m58.617,32.403c-2.963.897-9.946,3.011-13.936,8.146" fill="none" stroke="#2e3c36" stroke-linecap="round" stroke-linejoin="round"/>
  <path d="m41.447,30.006c3.014.705,10.119,2.367,16.142-.085" fill="none" stroke="#2e3c36" stroke-linecap="round" stroke-linejoin="round"/>
  <path d="m53.863,32.66c-3.018.689-10.131,2.313-14.468,7.159" fill="none" stroke="#2e3c36" stroke-linecap="round" stroke-linejoin="round"/>
  <path d="m60.789,33.641c-1.693,2.591-5.684,8.7-5.44,15.198" fill="none" stroke="#2e3c36" stroke-linecap="round" stroke-linejoin="round"/>
  <path d="m46.095,42.842c2.762-1.397,9.273-4.691,12.311-10.441" fill="none" stroke="#2e3c36" stroke-linecap="round" stroke-linejoin="round"/>
  <path d="m57.312,36.893c-1.869,2.468-6.274,8.284-6.481,14.784" fill="none" stroke="#2e3c36" stroke-linecap="round" stroke-linejoin="round"/>
  <path d="m63.248,33.193c.369,3.073,1.238,10.318,5.602,15.139" fill="none" stroke="#2e3c36" stroke-linecap="round" stroke-linejoin="round"/>
  <path d="m57.906,49.686c1.218-2.846,4.088-9.554,2.72-15.912" fill="none" stroke="#2e3c36" stroke-linecap="round" stroke-linejoin="round"/>
  <path d="m62.676,37.919c.155,3.092.519,10.379,4.538,15.491" fill="none" stroke="#2e3c36" stroke-linecap="round" stroke-linejoin="round"/>
  <path d="m64.844,31.269c2.258,2.117,7.581,7.109,14.023,7.997" fill="none" stroke="#2e3c36" stroke-linecap="round" stroke-linejoin="round"/>
  <path d="m71.354,47.337c-.897-2.963-3.01-9.947-8.144-13.937" fill="none" stroke="#2e3c36" stroke-linecap="round" stroke-linejoin="round"/>
  <path d="m67.444,35.258c2.106,2.269,7.069,7.617,13.434,8.95" fill="none" stroke="#2e3c36" stroke-linecap="round" stroke-linejoin="round"/>
  <path d="m64.831,28.77c3.091.171,10.376.573,15.882-2.888" fill="none" stroke="#2e3c36" stroke-linecap="round" stroke-linejoin="round"/>
  <path d="m80.146,36.894c-2.591-1.693-8.699-5.685-15.198-5.441" fill="none" stroke="#2e3c36" stroke-linecap="round" stroke-linejoin="round"/>
  <path d="m69.386,30.154c3.072.385,10.312,1.291,16.044-1.779" fill="none" stroke="#2e3c36" stroke-linecap="round" stroke-linejoin="round"/>
  <path d="m63.213,26.864c2.477-1.856,8.317-6.231,10.31-12.421" fill="none" stroke="#2e3c36" stroke-linecap="round" stroke-linejoin="round"/>
  <path d="m80.168,23.243c-3.074.368-10.318,1.237-15.14,5.601" fill="none" stroke="#2e3c36" stroke-linecap="round" stroke-linejoin="round"/>
  <path d="m67.593,24.996c2.6-1.68,8.729-5.639,11.147-11.676" fill="none" stroke="#2e3c36" stroke-linecap="round" stroke-linejoin="round"/>
  <path d="m60.749,26.443c.705-3.014,2.366-10.119-.086-16.142" fill="none" stroke="#2e3c36" stroke-linecap="round" stroke-linejoin="round"/>
  <path d="m71.41,12.772c-2.118,2.258-7.109,7.58-7.998,14.022" fill="none" stroke="#2e3c36" stroke-linecap="round" stroke-linejoin="round"/>
  <path d="m62.904,22.198c.912-2.958,3.062-9.931,1.034-16.109" fill="none" stroke="#2e3c36" stroke-linecap="round" stroke-linejoin="round"/>
  <g>
    <line x1="99.335" y1="68.147" x2="104.527" y2="52.316" fill="none" stroke="#2e3c36" stroke-linecap="round" stroke-linejoin="round"/>
    <line x1="100.662" y1="68.966" x2="104.877" y2="61.37" fill="none" stroke="#2e3c36" stroke-linecap="round" stroke-linejoin="round"/>
    <line x1="103.05" y1="70.989" x2="109.234" y2="64.888" fill="none" stroke="#2e3c36" stroke-linecap="round" stroke-linejoin="round"/>
    <line x1="102.06" y1="69.96" x2="111.973" y2="58.227" fill="none" stroke="#2e3c36" stroke-linecap="round" stroke-linejoin="round"/>
  </g>
  <g>
    <line x1="93.24" y1="69.761" x2="82.126" y2="57.349" fill="none" stroke="#2e3c36" stroke-linecap="round" stroke-linejoin="round"/>
    <line x1="94.612" y1="69.022" x2="90.142" y2="61.573" fill="none" stroke="#2e3c36" stroke-linecap="round" stroke-linejoin="round"/>
    <line x1="97.559" y1="67.966" x2="95.367" y2="59.56" fill="none" stroke="#2e3c36" stroke-linecap="round" stroke-linejoin="round"/>
    <line x1="96.172" y1="68.308" x2="90.968" y2="53.857" fill="none" stroke="#2e3c36" stroke-linecap="round" stroke-linejoin="round"/>
  </g>
  <g>
    <line x1="91.59" y1="75.847" x2="75.285" y2="79.266" fill="none" stroke="#2e3c36" stroke-linecap="round" stroke-linejoin="round"/>
    <line x1="91.636" y1="74.289" x2="82.95" y2="74.436" fill="none" stroke="#2e3c36" stroke-linecap="round" stroke-linejoin="round"/>
    <line x1="92.194" y1="71.209" x2="83.819" y2="68.904" fill="none" stroke="#2e3c36" stroke-linecap="round" stroke-linejoin="round"/>
    <line x1="91.797" y1="72.581" x2="76.681" y2="69.862" fill="none" stroke="#2e3c36" stroke-linecap="round" stroke-linejoin="round"/>
  </g>
  <g>
    <line x1="96.036" y1="80.318" x2="90.844" y2="96.149" fill="none" stroke="#2e3c36" stroke-linecap="round" stroke-linejoin="round"/>
    <line x1="94.709" y1="79.5" x2="90.494" y2="87.095" fill="none" stroke="#2e3c36" stroke-linecap="round" stroke-linejoin="round"/>
    <line x1="92.321" y1="77.476" x2="86.137" y2="83.577" fill="none" stroke="#2e3c36" stroke-linecap="round" stroke-linejoin="round"/>
    <line x1="93.311" y1="78.506" x2="83.398" y2="90.238" fill="none" stroke="#2e3c36" stroke-linecap="round" stroke-linejoin="round"/>
  </g>
  <g>
    <line x1="102.131" y1="78.704" x2="113.245" y2="91.116" fill="none" stroke="#2e3c36" stroke-linecap="round" stroke-linejoin="round"/>
    <line x1="100.759" y1="79.444" x2="105.229" y2="86.892" fill="none" stroke="#2e3c36" stroke-linecap="round" stroke-linejoin="round"/>
    <line x1="97.812" y1="80.5" x2="100.004" y2="88.906" fill="none" stroke="#2e3c36" stroke-linecap="round" stroke-linejoin="round"/>
    <line x1="99.199" y1="80.158" x2="104.403" y2="94.609" fill="none" stroke="#2e3c36" stroke-linecap="round" stroke-linejoin="round"/>
  </g>
  <g>
    <line x1="103.781" y1="72.618" x2="120.086" y2="69.2" fill="none" stroke="#2e3c36" stroke-linecap="round" stroke-linejoin="round"/>
    <line x1="103.735" y1="74.177" x2="112.421" y2="74.03" fill="none" stroke="#2e3c36" stroke-linecap="round" stroke-linejoin="round"/>
    <line x1="103.176" y1="77.256" x2="111.552" y2="79.562" fill="none" stroke="#2e3c36" stroke-linecap="round" stroke-linejoin="round"/>
    <line x1="103.573" y1="75.885" x2="118.69" y2="78.603" fill="none" stroke="#2e3c36" stroke-linecap="round" stroke-linejoin="round"/>
  </g>
</svg>