<?xml version="1.0" encoding="UTF-8"?>
<svg id="d" data-name="Icons" xmlns="http://www.w3.org/2000/svg" width="1.739in" height="1.768in" viewBox="0 0 125.205 127.311">
  <g>
    <g>
      <polyline points="67.181 79.552 56.692 81.203 43.206 72.168 45.229 58.682 49.68 53.692" fill="none" stroke="#2e3c36" stroke-linecap="round" stroke-linejoin="round" stroke-width="2"/>
      <polyline points="61.412 59.626 63.3 58.277 65.863 60.435 63.975 63.267 59.524 61.109 61.008 54.771 69.774 57.603 65.863 66.504 55.748 62.728 58.176 50.186 67.211 51.13 75.303 62.188 67.077 76.483 53.591 71.089 48.466 63.132 50.354 51.4 59.929 45.87 74.359 51.13 81.102 63.942 73.819 78.506 67.181 79.552" fill="none" stroke="#2e3c36" stroke-linecap="round" stroke-linejoin="round" stroke-width="2"/>
    </g>
    <polyline points="46.802 40.825 46.943 39.774 48.463 39.595 48.816 41.109 46.706 41.917 45.059 39.442 48.741 37.407 50.484 41.492 46.065 43.681 42.646 38.952 45.784 36.238 51.997 36.998 54.188 44.206 48.176 47.012 43.924 46.233 40.606 41.937 41.757 37.02 48.018 33.857 54.393 35.615 56.969 42.592 52.515 49.14 45.29 50.809 41.43 45.92 41.159 42.878" fill="none" stroke="#2e3c36" stroke-linecap="round" stroke-linejoin="round" stroke-width="2"/>
    <polyline points="75.098 35.925 76.412 35.5 77.477 37.187 75.895 38.453 73.759 36.427 75.743 33.097 80.207 36.285 76.383 40.63 71.324 36.664 74.963 29.985 79.92 32.149 82.518 39.883 75.273 46.512 68.593 41.02 67.119 35.581 70.306 29.263 76.736 27.852 83.976 33.438 85.493 41.924 78.735 48.876 68.529 47.319 62.505 39.76 66.085 32.472 69.51 30.443" fill="none" stroke="#2e3c36" stroke-linecap="round" stroke-linejoin="round" stroke-width="2"/>
    <g>
      <circle cx="35.432" cy="54.861" r="2.63" fill="none" stroke="#2e3c36" stroke-linecap="round" stroke-linejoin="round" stroke-width="2"/>
      <polyline points="33.707 52.55 28.332 50.094 28.34 44.689 34.018 42.555 40.504 46.253 36.626 52.606 42.144 47.5 44.516 52.565 43.308 57.748 40.327 61.139 38.677 60.95 37.913 56.683 37.668 62.701 35.284 64.294 31.756 64.196 27.937 62.03 27.031 59 28.341 56.81 32.961 55.761 24.655 56.637 23.617 53.788 23.473 51.403 24.677 48.197 27.3 47.44" fill="none" stroke="#2e3c36" stroke-linecap="round" stroke-linejoin="round" stroke-width="2"/>
    </g>
    <g>
      <circle cx="87.998" cy="56.168" r="2.63" fill="none" stroke="#2e3c36" stroke-linecap="round" stroke-linejoin="round" stroke-width="2"/>
      <polyline points="90.88 56.049 95.942 53.001 100.397 56.06 98.952 61.951 92.237 65.215 89.184 58.426 90.282 65.864 84.762 64.961 81.167 61.037 80.052 56.661 81.14 55.407 85.093 57.186 80.265 53.585 80.297 50.718 82.37 47.863 86.315 45.934 89.327 46.898 90.394 49.216 88.651 53.62 92.618 46.271 95.556 47.024 97.606 48.252 99.571 51.056 98.715 53.648" fill="none" stroke="#2e3c36" stroke-linecap="round" stroke-linejoin="round" stroke-width="2"/>
    </g>
    <g>
      <circle cx="36.8" cy="68.74" r="1.492" fill="none" stroke="#2e3c36" stroke-linecap="round" stroke-linejoin="round" stroke-width="2"/>
      <polyline points="38.257 67.997 40.145 65.227 43.166 65.749 43.815 69.128 41.126 72.4 37.946 69.623 40.272 73.198 37.213 74.039 34.431 72.867 32.82 70.876 33.084 69.971 35.543 69.953 32.202 69.239 31.54 67.754 31.933 65.791 33.509 63.863 35.29 63.647 36.389 64.589 36.533 67.272 36.838 62.545 38.531 62.237 39.878 62.385 41.555 63.365 41.728 64.904" fill="none" stroke="#2e3c36" stroke-linecap="round" stroke-linejoin="round" stroke-width="2"/>
    </g>
    <g>
      <circle cx="87.837" cy="29.375" r="1.492" fill="none" stroke="#2e3c36" stroke-linecap="round" stroke-linejoin="round" stroke-width="2"/>
      <polyline points="89.294 28.631 91.182 25.862 94.203 26.384 94.852 29.763 92.163 33.035 88.983 30.258 91.309 33.832 88.25 34.673 85.468 33.501 83.857 31.51 84.121 30.606 86.58 30.587 83.239 29.874 82.577 28.388 82.97 26.426 84.546 24.498 86.327 24.281 87.426 25.224 87.57 27.907 87.875 23.179 89.568 22.872 90.915 23.02 92.592 24 92.765 25.539" fill="none" stroke="#2e3c36" stroke-linecap="round" stroke-linejoin="round" stroke-width="2"/>
    </g>
    <g>
      <circle cx="82.608" cy="71.539" r="1.492" fill="none" stroke="#2e3c36" stroke-linecap="round" stroke-linejoin="round" stroke-width="2"/>
      <polyline points="84.065 70.796 85.953 68.026 88.974 68.548 89.623 71.927 86.934 75.199 83.754 72.422 86.08 75.997 83.021 76.838 80.239 75.666 78.628 73.675 78.892 72.77 81.351 72.752 78.01 72.038 77.348 70.553 77.741 68.59 79.317 66.662 81.098 66.446 82.197 67.388 82.341 70.071 82.647 65.344 84.339 65.036 85.686 65.184 87.363 66.164 87.536 67.703" fill="none" stroke="#2e3c36" stroke-linecap="round" stroke-linejoin="round" stroke-width="2"/>
    </g>
    <g>
      <circle cx="44.848" cy="27.879" r="1.492" fill="none" stroke="#2e3c36" stroke-linecap="round" stroke-linejoin="round" stroke-width="2"/>
      <polyline points="43.273 28.32 40.875 30.662 38.017 29.554 38.048 26.113 41.33 23.437 43.899 26.787 42.325 22.824 45.489 22.603 47.985 24.302 49.171 26.572 48.733 27.406 46.319 26.939 49.454 28.298 49.81 29.885 49.037 31.732 47.11 33.31 45.322 33.17 44.431 32.03 44.82 29.371 43.586 33.945 41.866 33.912 40.575 33.501 39.125 32.209 39.26 30.666" fill="none" stroke="#2e3c36" stroke-linecap="round" stroke-linejoin="round" stroke-width="2"/>
    </g>
    <g>
      <circle cx="63.156" cy="20.485" r="2.63" fill="none" stroke="#2e3c36" stroke-linecap="round" stroke-linejoin="round" stroke-width="2"/>
      <polyline points="64.869 18.165 65.664 12.31 70.84 10.753 74.526 15.571 72.864 22.849 65.66 20.976 72.144 24.78 67.983 28.516 62.672 28.86 58.563 26.988 58.267 25.354 62.13 23.388 56.299 24.895 54.084 23.074 53.157 19.669 54.125 15.387 56.763 13.642 59.239 14.263 61.58 18.381 58.337 10.685 60.764 8.866 63.005 8.038 66.422 8.263 67.906 10.554" fill="none" stroke="#2e3c36" stroke-linecap="round" stroke-linejoin="round" stroke-width="2"/>
    </g>
    <path d="m76.56,25.48c-3.308,0,1.13-9.735,2.986-11.102s8.069-5.124,10.329-5.295-1.372,9.308-3.066,10.845-6.536,5.551-10.248,5.551Z" fill="none" stroke="#2e3c36" stroke-linecap="round" stroke-linejoin="round" stroke-width="2"/>
    <path d="m37.875,39.931c.527,2.084-6.311.84-7.468-.111s-4.513-4.265-4.981-5.661,6.081-.62,7.319.202,4.538,3.231,5.129,5.569Z" fill="none" stroke="#2e3c36" stroke-linecap="round" stroke-linejoin="round" stroke-width="2"/>
    <path d="m51.184,22.93c.527,2.084-6.311.84-7.468-.111s-4.513-4.265-4.981-5.661,6.081-.62,7.319.202,4.538,3.231,5.129,5.569Z" fill="none" stroke="#2e3c36" stroke-linecap="round" stroke-linejoin="round" stroke-width="2"/>
    <path d="m58.619,38.566c-.878,1.962-5.472-3.255-5.789-4.718s-.895-6.145-.397-7.53,5.155,3.285,5.616,4.698,1.556,5.349.57,7.55Z" fill="none" stroke="#2e3c36" stroke-linecap="round" stroke-linejoin="round" stroke-width="2"/>
    <path d="m57.854,43.283c-2.016.745-1.505-6.186-.682-7.437s3.762-4.94,5.1-5.553,1.262,5.981.576,7.299-2.732,4.855-4.993,5.691Z" fill="none" stroke="#2e3c36" stroke-linecap="round" stroke-linejoin="round" stroke-width="2"/>
    <path d="m38.623,32.223c-.46,2.442-7.274-2.234-8.058-3.801s-2.788-6.693-2.604-8.385,6.914,2.352,7.852,3.823,3.328,5.623,2.811,8.362Z" fill="none" stroke="#2e3c36" stroke-linecap="round" stroke-linejoin="round" stroke-width="2"/>
    <path d="m86.944,44.677c-2.359-.781,3.182-6.912,4.839-7.481s7.004-1.874,8.657-1.466-3.25,6.54-4.834,7.273c-1.583.733-6.015,2.55-8.662,1.674Z" fill="none" stroke="#2e3c36" stroke-linecap="round" stroke-linejoin="round" stroke-width="2"/>
    <g>
      <line x1="61.78" y1="80.788" x2="59.602" y2="116.922" fill="none" stroke="#2e3c36" stroke-linecap="round" stroke-linejoin="round"/>
      <line x1="68.852" y1="80.088" x2="55.481" y2="116.783" fill="none" stroke="#2e3c36" stroke-linecap="round" stroke-linejoin="round"/>
      <line x1="67.304" y1="80.211" x2="55.99" y2="116.947" fill="none" stroke="#2e3c36" stroke-linecap="round" stroke-linejoin="round"/>
      <line x1="67.363" y1="80.019" x2="67.304" y2="80.211" fill="none" stroke="#2e3c36" stroke-linecap="round" stroke-linejoin="round"/>
      <line x1="60.734" y1="80.829" x2="58.431" y2="117.452" fill="none" stroke="#2e3c36" stroke-linecap="round" stroke-linejoin="round"/>
      <line x1="64.257" y1="80.489" x2="57.695" y2="118.672" fill="none" stroke="#2e3c36" stroke-linecap="round" stroke-linejoin="round"/>
      <line x1="53.126" y1="78.81" x2="63.352" y2="115.262" fill="none" stroke="#2e3c36" stroke-linecap="round" stroke-linejoin="round"/>
      <line x1="59.155" y1="81.044" x2="60.345" y2="115.906" fill="none" stroke="#2e3c36" stroke-linecap="round" stroke-linejoin="round"/>
      <line x1="58.677" y1="81.079" x2="59.87" y2="116.004" fill="none" stroke="#2e3c36" stroke-linecap="round" stroke-linejoin="round"/>
      <line x1="48.66" y1="76.897" x2="65.257" y2="115.405" fill="none" stroke="#2e3c36" stroke-linecap="round" stroke-linejoin="round"/>
      <line x1="55.92" y1="80.279" x2="62.091" y2="117.332" fill="none" stroke="#2e3c36" stroke-linecap="round" stroke-linejoin="round"/>
    </g>
  </g>
  <path d="m59.285,102.646l1.778-5.888c.796-2.639,2.702-4.813,5.239-5.973l1.424-.651c.834-.381,1.759-.529,2.675-.428h0c1.274.141,2.215,1.242,2.136,2.499h0c-.135,2.151-1.309,4.103-3.158,5.251l-2.398,1.489c-.127.079-.26.147-.398.205l-7.299,3.496Z" fill="none" stroke="#2e3c36" stroke-linecap="round" stroke-linejoin="round" stroke-width="2"/>
  <path d="m59.285,102.646l-1.9-3.533c-1.1-1.616-2.601-2.93-4.361-3.816l-1.29-.65c-1.088-.548-2.315-.772-3.528-.643l-3.177.336c-.992.105-1.598,1.119-1.21,2.026h0c.5,1.168,1.535,2.035,2.787,2.333l4.598,1.096,8.081,2.851Z" fill="none" stroke="#2e3c36" stroke-linecap="round" stroke-linejoin="round" stroke-width="2"/>
  <path d="m49.143,114.508l2.538-1.452c3.434-1.965,6.453-6.667,7.604-10.41h0l4.956,3.992c1.821,1.709,4.034,2.959,6.45,3.644l3.083.875" fill="none" stroke="#2e3c36" stroke-linecap="round" stroke-linejoin="round" stroke-width="2"/>
</svg>