<?xml version="1.0" encoding="UTF-8"?>
<svg id="d" data-name="Icons" xmlns="http://www.w3.org/2000/svg" width="1.739in" height="1.768in" viewBox="0 0 125.205 127.311">
  <g>
    <path d="m71.584,37.116c0,1.416-1.148,2.563-2.563,2.563s-2.563-1.148-2.563-2.563,1.148-2.566,2.563-2.566,2.563,1.151,2.563,2.566Z" fill="none" stroke="#2e3c36" stroke-miterlimit="10" stroke-width="2"/>
    <path d="m77.484,37.116c0,1.416-1.148,2.563-2.563,2.563s-2.563-1.148-2.563-2.563,1.148-2.566,2.563-2.566,2.563,1.151,2.563,2.566Z" fill="none" stroke="#2e3c36" stroke-miterlimit="10" stroke-width="2"/>
    <path d="m83.384,37.116c0,1.416-1.148,2.563-2.563,2.563s-2.563-1.148-2.563-2.563,1.148-2.566,2.563-2.566,2.563,1.151,2.563,2.566Z" fill="none" stroke="#2e3c36" stroke-miterlimit="10" stroke-width="2"/>
  </g>
  <path d="m75.092,26.696l1.415-2.689c.384-.783.833-1.532,1.344-2.239l6.169-8.549-.025-6.797v6.797s2.472,6.643,2.472,6.643l-3.333,14.687,5.132,21.795h0l8.336,66.826" fill="none" stroke="#2e3c36" stroke-linecap="round" stroke-linejoin="round" stroke-width="2"/>
  <path d="m61.535,56.344l-16.495,45.777c-1.158,3.214-3.826,5.652-7.131,6.516l-3.723.974c-4.112,1.075-7.999,2.878-11.476,5.321l-1.879,1.321c-.656.461-.537,1.465.208,1.761l7.894,3.13c2.612,1.036,5.397,1.568,8.207,1.568l14.848.783,9.548-67.152,5.407-21.795-3.399-14.687,2.472-6.643s0-6.797,0-6.797v6.797l6.9,9.563c.023.032.044.066.061.102l2.115,3.811,3.622,7.854h4.419-16.191" fill="none" stroke="#2e3c36" stroke-linecap="round" stroke-linejoin="round" stroke-width="2"/>
  <path d="m51.988,123.496c0-1.818,1.716-3.397,3.494-3.397s3.219,1.579,3.219,3.397c0,.036-.009-.036-.01,0h-6.703c-.001-.036,0,.036,0,0Z" fill="none" stroke="#2e3c36" stroke-miterlimit="10" stroke-width="2"/>
  <path d="m59.856,123.391c0-1.818,1.441-3.293,3.219-3.293s3.219,1.474,3.219,3.293c0,.036-.009.069-.01.105h-6.417c0-.036-.01-.069-.01-.105Z" fill="none" stroke="#2e3c36" stroke-miterlimit="10" stroke-width="2"/>
  <path d="m67.45,123.391c0-1.818,1.441-3.293,3.219-3.293s3.219,1.474,3.219,3.293c0,.036-.009.069-.01.105h-6.417c-.001-.036-.01-.069-.01-.105Z" fill="none" stroke="#2e3c36" stroke-miterlimit="10" stroke-width="2"/>
  <path d="m75.043,123.391c0-1.818,1.441-3.293,3.219-3.293s3.219,1.474,3.219,3.293c0,.036-.009.069-.01.105h-6.417c0-.036-.01-.069-.01-.105Z" fill="none" stroke="#2e3c36" stroke-miterlimit="10" stroke-width="2"/>
  <path d="m82.637,123.391c0-1.818,1.441-3.293,3.219-3.293s3.219,1.474,3.219,3.293c0,.036-.009.069-.01.105h-6.417c-.001-.036-.01-.069-.01-.105Z" fill="none" stroke="#2e3c36" stroke-miterlimit="10" stroke-width="2"/>
  <path d="m90.297,122.739c.368-1.781,2.078-2.932,3.819-2.572,1.561.323,2.608,1.753,2.543,3.329h-6.424c-.006-.249.009-.502.062-.757Z" fill="none" stroke="#2e3c36" stroke-miterlimit="10" stroke-width="2"/>
</svg>